G04*
G04 #@! TF.GenerationSoftware,Altium Limited,Altium Designer,23.3.1 (30)*
G04*
G04 Layer_Color=16711935*
%FSLAX44Y44*%
%MOMM*%
G71*
G04*
G04 #@! TF.SameCoordinates,E1D300C1-D630-478A-AE1F-60CBEBB5A271*
G04*
G04*
G04 #@! TF.FilePolarity,Positive*
G04*
G01*
G75*
%ADD20C,0.1500*%
%ADD129C,0.1000*%
%ADD130C,0.0100*%
D20*
X407336Y494284D02*
G03*
X407336Y494284I-5000J0D01*
G01*
X414236Y482384D02*
Y582384D01*
X314236Y482384D02*
Y582384D01*
Y482384D02*
X414236D01*
X314236Y582384D02*
X414236D01*
D129*
X565832Y401320D02*
G03*
X565832Y401320I-5000J0D01*
G01*
X203628Y638556D02*
G03*
X203628Y638556I-5000J0D01*
G01*
X209724Y563372D02*
G03*
X209724Y563372I-5000J0D01*
G01*
X220900Y384556D02*
G03*
X220900Y384556I-5000J0D01*
G01*
X218868Y267208D02*
G03*
X218868Y267208I-5000J0D01*
G01*
X274052Y659996D02*
X304052D01*
X274052Y672996D02*
X304052D01*
X274052Y659996D02*
Y672996D01*
X304052Y659996D02*
Y672996D01*
X518052Y373160D02*
Y409160D01*
X568052Y373160D02*
Y409160D01*
X518052Y373160D02*
X568052D01*
X518052Y409160D02*
X568052D01*
X241408Y630716D02*
Y666716D01*
X191408Y630716D02*
Y666716D01*
X241408D01*
X191408Y630716D02*
X241408D01*
X176564Y606152D02*
X212564D01*
X176564Y556152D02*
X212564D01*
X176564D02*
Y606152D01*
X212564Y556152D02*
Y606152D01*
X223740Y377336D02*
Y427336D01*
X187740Y377336D02*
Y427336D01*
Y377336D02*
X223740D01*
X187740Y427336D02*
X223740D01*
X221708Y259988D02*
Y309988D01*
X185708Y259988D02*
Y309988D01*
Y259988D02*
X221708D01*
X185708Y309988D02*
X221708D01*
X64756Y144884D02*
X94756D01*
X64756Y157884D02*
X94756D01*
X64756Y144884D02*
Y157884D01*
X94756Y144884D02*
Y157884D01*
X231888Y104163D02*
X261888D01*
X231888Y91163D02*
X261888D01*
Y104163D01*
X231888Y91163D02*
Y104163D01*
X620028Y646788D02*
Y659788D01*
X590028Y646788D02*
Y659788D01*
X620028D01*
X590028Y646788D02*
X620028D01*
D130*
X171068Y16384D02*
Y24384D01*
X155068D02*
X171068D01*
X155068Y16384D02*
Y24384D01*
Y16384D02*
X171068D01*
X170560Y98680D02*
Y106680D01*
X154560D02*
X170560D01*
X154560Y98680D02*
Y106680D01*
Y98680D02*
X170560D01*
X135000Y16892D02*
Y24892D01*
X119000D02*
X135000D01*
X119000Y16892D02*
Y24892D01*
Y16892D02*
X135000D01*
M02*
