G04*
G04 #@! TF.GenerationSoftware,Altium Limited,Altium Designer,23.3.1 (30)*
G04*
G04 Layer_Color=8388736*
%FSLAX44Y44*%
%MOMM*%
G71*
G04*
G04 #@! TF.SameCoordinates,E1D300C1-D630-478A-AE1F-60CBEBB5A271*
G04*
G04*
G04 #@! TF.FilePolarity,Negative*
G04*
G01*
G75*
%ADD55R,0.7032X1.4032*%
%ADD56R,1.0922X1.4732*%
%ADD57R,1.9532X2.4032*%
%ADD58R,10.2032X10.6532*%
%ADD59R,3.4032X1.2532*%
%ADD60R,1.2192X1.0032*%
%ADD61R,0.7532X2.0032*%
%ADD62O,0.7532X2.0032*%
%ADD63R,3.5052X2.6162*%
%ADD64R,2.2032X2.2032*%
%ADD65R,0.9652X0.9652*%
%ADD66R,1.4732X1.4732*%
%ADD67R,0.9652X0.9652*%
%ADD68R,1.0032X1.2192*%
%ADD69R,2.0032X0.7532*%
%ADD70O,2.0032X0.7532*%
%ADD71R,2.6162X3.5052*%
%ADD72O,1.7532X0.4532*%
%ADD73O,0.4532X1.7532*%
%ADD74P,1.3650X4X270.0*%
%ADD75P,1.3650X4X180.0*%
%ADD76R,2.8032X2.8032*%
%ADD77R,0.5032X1.0032*%
%ADD78R,1.0032X0.5032*%
G04:AMPARAMS|DCode=79|XSize=1.7272mm|YSize=1.4732mm|CornerRadius=0mm|HoleSize=0mm|Usage=FLASHONLY|Rotation=0.000|XOffset=0mm|YOffset=0mm|HoleType=Round|Shape=Octagon|*
%AMOCTAGOND79*
4,1,8,0.8636,-0.3683,0.8636,0.3683,0.4953,0.7366,-0.4953,0.7366,-0.8636,0.3683,-0.8636,-0.3683,-0.4953,-0.7366,0.4953,-0.7366,0.8636,-0.3683,0.0*
%
%ADD79OCTAGOND79*%

%ADD80R,1.7272X1.4732*%
%ADD81R,1.4732X1.4732*%
%ADD82R,1.0922X0.9652*%
%ADD83R,2.4032X1.9532*%
%ADD84R,0.6532X1.2032*%
G04:AMPARAMS|DCode=85|XSize=1.4732mm|YSize=1.0922mm|CornerRadius=0mm|HoleSize=0mm|Usage=FLASHONLY|Rotation=90.000|XOffset=0mm|YOffset=0mm|HoleType=Round|Shape=Octagon|*
%AMOCTAGOND85*
4,1,8,0.2731,0.7366,-0.2731,0.7366,-0.5461,0.4636,-0.5461,-0.4636,-0.2731,-0.7366,0.2731,-0.7366,0.5461,-0.4636,0.5461,0.4636,0.2731,0.7366,0.0*
%
%ADD85OCTAGOND85*%

%ADD86R,3.9532X9.7032*%
%ADD87R,2.6032X2.8032*%
%ADD88C,1.8032*%
%ADD89R,1.8032X1.8032*%
%ADD90C,1.9032*%
%ADD91R,1.9032X1.9032*%
%ADD92C,2.1032*%
%ADD93R,2.1032X2.1032*%
%ADD94O,5.2028X3.2032*%
%ADD95R,1.9032X1.9032*%
%ADD96C,1.7032*%
%ADD97C,6.0032*%
%ADD98C,2.0032*%
%ADD99R,2.0032X2.0032*%
%ADD100C,5.2032*%
%ADD101R,2.1032X2.1032*%
%ADD102C,2.7032*%
D55*
X279552Y655066D02*
D03*
X298552D02*
D03*
X289052Y677926D02*
D03*
X70256Y139954D02*
D03*
X89256D02*
D03*
X79756Y162814D02*
D03*
X256388Y109093D02*
D03*
X237388D02*
D03*
X246888Y86233D02*
D03*
D56*
X662636Y352044D02*
D03*
X643636D02*
D03*
X571435Y532639D02*
D03*
D57*
X465328Y360820D02*
D03*
Y314820D02*
D03*
X329184Y120624D02*
D03*
Y166624D02*
D03*
X610616Y347332D02*
D03*
Y393332D02*
D03*
D58*
X484632Y167876D02*
D03*
D59*
X380492Y133876D02*
D03*
Y150876D02*
D03*
Y167876D02*
D03*
Y184876D02*
D03*
Y201876D02*
D03*
D60*
X652780Y648716D02*
D03*
X634238D02*
D03*
X693547Y172720D02*
D03*
X675005D02*
D03*
Y189484D02*
D03*
X693547D02*
D03*
X675005Y206756D02*
D03*
X693547D02*
D03*
X239141Y127508D02*
D03*
X257683D02*
D03*
X692912Y155448D02*
D03*
X674370D02*
D03*
X748665Y688340D02*
D03*
X767207D02*
D03*
X258699Y145288D02*
D03*
X240157D02*
D03*
X675640Y138176D02*
D03*
X694182D02*
D03*
X675513Y120396D02*
D03*
X694055D02*
D03*
X467233Y234188D02*
D03*
X485775D02*
D03*
X703834Y257556D02*
D03*
X722376D02*
D03*
X571373Y723900D02*
D03*
X589915D02*
D03*
X747649D02*
D03*
X766191D02*
D03*
X515747Y342900D02*
D03*
X497205D02*
D03*
X458089Y421132D02*
D03*
X476631D02*
D03*
X622173Y90424D02*
D03*
X640715D02*
D03*
X279273Y619252D02*
D03*
X297815D02*
D03*
Y636524D02*
D03*
X279273D02*
D03*
D61*
X562102Y417410D02*
D03*
X197358Y622466D02*
D03*
D62*
X549402Y417410D02*
D03*
X536702D02*
D03*
X524002D02*
D03*
X562102Y364910D02*
D03*
X549402D02*
D03*
X536702D02*
D03*
X524002D02*
D03*
X210058Y622466D02*
D03*
X222758D02*
D03*
X235458D02*
D03*
X197358Y674966D02*
D03*
X210058D02*
D03*
X222758D02*
D03*
X235458D02*
D03*
D63*
X543052Y391160D02*
D03*
X216408Y648716D02*
D03*
D64*
X693420Y445516D02*
D03*
X617220D02*
D03*
D65*
X159720Y669036D02*
D03*
X172720D02*
D03*
X232051Y704087D02*
D03*
X219051D02*
D03*
X400915Y665987D02*
D03*
X413915D02*
D03*
X436267Y607567D02*
D03*
X423267D02*
D03*
X400915Y681228D02*
D03*
X413915D02*
D03*
X334667Y613155D02*
D03*
X321667D02*
D03*
X171196Y645668D02*
D03*
X158196D02*
D03*
X617623Y624331D02*
D03*
X604623D02*
D03*
X635300Y108204D02*
D03*
X622300D02*
D03*
X650032Y627380D02*
D03*
X637032D02*
D03*
D66*
X195326Y697484D02*
D03*
X172466D02*
D03*
X131318Y240792D02*
D03*
X154178D02*
D03*
D67*
X124461Y464207D02*
D03*
Y451207D02*
D03*
X583183Y384153D02*
D03*
Y397153D02*
D03*
X129033Y626975D02*
D03*
Y639975D02*
D03*
X125985Y265787D02*
D03*
Y278787D02*
D03*
X153415Y317397D02*
D03*
Y304397D02*
D03*
X155955Y490117D02*
D03*
Y477117D02*
D03*
X580644Y651972D02*
D03*
Y664972D02*
D03*
X597916Y246888D02*
D03*
Y233888D02*
D03*
X534415Y453033D02*
D03*
Y440033D02*
D03*
X552195Y577701D02*
D03*
Y590701D02*
D03*
X551689Y558187D02*
D03*
Y545187D02*
D03*
D68*
X358648Y722884D02*
D03*
Y704342D02*
D03*
X384556Y725170D02*
D03*
Y706628D02*
D03*
X269240Y591633D02*
D03*
Y573091D02*
D03*
X201676Y198882D02*
D03*
Y180340D02*
D03*
X252984Y591312D02*
D03*
Y572770D02*
D03*
X185420Y198882D02*
D03*
Y180340D02*
D03*
X560324Y647446D02*
D03*
Y665988D02*
D03*
X570484Y593979D02*
D03*
Y575437D02*
D03*
X518160Y458343D02*
D03*
Y439801D02*
D03*
X494284Y422529D02*
D03*
Y441071D02*
D03*
X566420Y439928D02*
D03*
Y458470D02*
D03*
X550164Y458851D02*
D03*
Y440309D02*
D03*
X407924Y427355D02*
D03*
Y408813D02*
D03*
X479552Y531368D02*
D03*
Y549910D02*
D03*
X428244Y409829D02*
D03*
Y428371D02*
D03*
D69*
X220814Y562102D02*
D03*
X231990Y383286D02*
D03*
X229958Y265938D02*
D03*
D70*
X220814Y574802D02*
D03*
Y587502D02*
D03*
Y600202D02*
D03*
X168314Y562102D02*
D03*
Y574802D02*
D03*
Y587502D02*
D03*
Y600202D02*
D03*
X179490Y421386D02*
D03*
Y408686D02*
D03*
Y395986D02*
D03*
Y383286D02*
D03*
X231990Y421386D02*
D03*
Y408686D02*
D03*
Y395986D02*
D03*
X177458Y304038D02*
D03*
Y291338D02*
D03*
Y278638D02*
D03*
Y265938D02*
D03*
X229958Y304038D02*
D03*
Y291338D02*
D03*
Y278638D02*
D03*
D71*
X194564Y581152D02*
D03*
X205740Y402336D02*
D03*
X203708Y284988D02*
D03*
D72*
X419233Y494886D02*
D03*
Y499886D02*
D03*
Y504886D02*
D03*
Y509886D02*
D03*
Y514886D02*
D03*
Y519886D02*
D03*
Y524886D02*
D03*
Y529886D02*
D03*
Y534886D02*
D03*
Y539886D02*
D03*
Y544886D02*
D03*
Y549886D02*
D03*
Y554886D02*
D03*
Y559886D02*
D03*
Y564886D02*
D03*
Y569886D02*
D03*
X309241D02*
D03*
Y564886D02*
D03*
Y559886D02*
D03*
Y554886D02*
D03*
Y549886D02*
D03*
Y544886D02*
D03*
Y539886D02*
D03*
Y534886D02*
D03*
Y529886D02*
D03*
Y524886D02*
D03*
Y519886D02*
D03*
Y514886D02*
D03*
Y509886D02*
D03*
Y504886D02*
D03*
Y499886D02*
D03*
Y494886D02*
D03*
D73*
X401737Y587382D02*
D03*
X396737D02*
D03*
X391737D02*
D03*
X386737D02*
D03*
X381737D02*
D03*
X376737D02*
D03*
X371737D02*
D03*
X366737D02*
D03*
X361737D02*
D03*
X356737D02*
D03*
X351737D02*
D03*
X346737D02*
D03*
X341737D02*
D03*
X336737D02*
D03*
X331737D02*
D03*
X326737D02*
D03*
X326737Y477390D02*
D03*
X331737D02*
D03*
X336737D02*
D03*
X341737D02*
D03*
X346737D02*
D03*
X351737D02*
D03*
X356737D02*
D03*
X361737D02*
D03*
X366737D02*
D03*
X371737D02*
D03*
X376737D02*
D03*
X381737D02*
D03*
X386737D02*
D03*
X391737D02*
D03*
X396737D02*
D03*
X401737D02*
D03*
D74*
X442492Y474497D02*
D03*
X433300Y465305D02*
D03*
D75*
X303324Y457466D02*
D03*
X294132Y466659D02*
D03*
D76*
X144826Y59434D02*
D03*
D77*
X152280Y39436D02*
D03*
X157280D02*
D03*
X147280Y79436D02*
D03*
Y39436D02*
D03*
X142280Y79436D02*
D03*
Y39436D02*
D03*
X132280D02*
D03*
X137280D02*
D03*
X132280Y79436D02*
D03*
X137280D02*
D03*
X152280D02*
D03*
X157280D02*
D03*
D78*
X164780Y71936D02*
D03*
Y61936D02*
D03*
X124780Y46936D02*
D03*
X164780Y66936D02*
D03*
X124780Y56936D02*
D03*
Y61936D02*
D03*
Y66936D02*
D03*
Y71936D02*
D03*
X164780Y56936D02*
D03*
Y51936D02*
D03*
Y46936D02*
D03*
X124780Y51936D02*
D03*
D79*
X768604Y670052D02*
D03*
X511048Y650240D02*
D03*
X540512Y235204D02*
D03*
X769620Y260096D02*
D03*
X591312Y743204D02*
D03*
X771144Y706120D02*
D03*
D80*
X743204Y670052D02*
D03*
X536448Y650240D02*
D03*
X515112Y235204D02*
D03*
X744220Y260096D02*
D03*
X565912Y743204D02*
D03*
X745744Y706120D02*
D03*
D81*
X45212Y156464D02*
D03*
Y133604D02*
D03*
X113792Y139446D02*
D03*
Y162306D02*
D03*
X192532Y36068D02*
D03*
Y13208D02*
D03*
X97536Y58166D02*
D03*
Y81026D02*
D03*
X192532Y59690D02*
D03*
Y82550D02*
D03*
X98044Y13970D02*
D03*
Y36830D02*
D03*
X124460Y580390D02*
D03*
Y603250D02*
D03*
X144272Y426212D02*
D03*
Y449072D02*
D03*
D82*
X171958Y20320D02*
D03*
X154432D02*
D03*
X171450Y102616D02*
D03*
X153924D02*
D03*
X135890Y20828D02*
D03*
X118364D02*
D03*
D83*
X539128Y89916D02*
D03*
X493128D02*
D03*
D84*
X605028Y664538D02*
D03*
X614528Y641858D02*
D03*
X595528D02*
D03*
D85*
X571435Y550419D02*
D03*
D86*
X623824Y168148D02*
D03*
X561324D02*
D03*
D87*
X535508Y41148D02*
D03*
X608508D02*
D03*
D88*
X543052Y342392D02*
D03*
X693020Y42672D02*
D03*
X668020Y17672D02*
D03*
Y67672D02*
D03*
D89*
X568052Y342392D02*
D03*
D90*
X82804Y412496D02*
D03*
Y488696D02*
D03*
Y463296D02*
D03*
Y437896D02*
D03*
Y387096D02*
D03*
X351028Y773684D02*
D03*
X376428D02*
D03*
X401828D02*
D03*
X142748Y727456D02*
D03*
X218948D02*
D03*
X193548D02*
D03*
X168148D02*
D03*
X117348D02*
D03*
X777240Y94996D02*
D03*
X751840D02*
D03*
X84328Y597916D02*
D03*
Y674116D02*
D03*
Y648716D02*
D03*
Y623316D02*
D03*
Y572516D02*
D03*
X419100Y38100D02*
D03*
X444500D02*
D03*
X469900D02*
D03*
X777240Y120396D02*
D03*
X751840D02*
D03*
X777240Y145796D02*
D03*
X751840D02*
D03*
X777240Y197104D02*
D03*
X751840D02*
D03*
X777240Y171704D02*
D03*
X751840D02*
D03*
X777240Y222504D02*
D03*
X751840D02*
D03*
X80772Y201168D02*
D03*
Y251968D02*
D03*
Y277368D02*
D03*
Y302768D02*
D03*
Y226568D02*
D03*
X769620Y358140D02*
D03*
Y383540D02*
D03*
Y408940D02*
D03*
X262128Y28448D02*
D03*
X287528D02*
D03*
X312928D02*
D03*
D91*
X82804Y514096D02*
D03*
X325628Y773684D02*
D03*
X84328Y699516D02*
D03*
X393700Y38100D02*
D03*
X80772Y328168D02*
D03*
X338328Y28448D02*
D03*
D92*
X376428Y279400D02*
D03*
X648208Y527812D02*
D03*
D93*
X325628Y279400D02*
D03*
D94*
X670814Y684022D02*
D03*
X670814Y731022D02*
D03*
Y778022D02*
D03*
X498094Y683006D02*
D03*
X498094Y730006D02*
D03*
Y777006D02*
D03*
D95*
X244348Y727456D02*
D03*
X726440Y94996D02*
D03*
Y120396D02*
D03*
Y145796D02*
D03*
Y197104D02*
D03*
Y171704D02*
D03*
Y222504D02*
D03*
X769620Y434340D02*
D03*
D96*
X516636Y591944D02*
D03*
Y543944D02*
D03*
D97*
X755396Y613156D02*
D03*
Y541156D02*
D03*
D98*
X186220Y500380D02*
D03*
D99*
X236220D02*
D03*
D100*
X759084Y40000D02*
D03*
X40000D02*
D03*
X39116Y762508D02*
D03*
X758952Y761492D02*
D03*
D101*
X648208Y578612D02*
D03*
D102*
X552220Y779780D02*
D03*
X617220D02*
D03*
M02*
