G04*
G04 #@! TF.GenerationSoftware,Altium Limited,Altium Designer,23.3.1 (30)*
G04*
G04 Layer_Color=2752767*
%FSLAX44Y44*%
%MOMM*%
G71*
G04*
G04 #@! TF.SameCoordinates,E1D300C1-D630-478A-AE1F-60CBEBB5A271*
G04*
G04*
G04 #@! TF.FilePolarity,Positive*
G04*
G01*
G75*
%ADD134C,0.0677*%
%ADD135C,0.0508*%
%ADD136C,0.0339*%
D134*
X545084Y342392D02*
G03*
X545084Y342392I-2032J0D01*
G01*
X570084D02*
G03*
X570084Y342392I-2032J0D01*
G01*
X518668Y591944D02*
G03*
X518668Y591944I-2032J0D01*
G01*
Y543944D02*
G03*
X518668Y543944I-2032J0D01*
G01*
X695052Y42672D02*
G03*
X695052Y42672I-2032J0D01*
G01*
X670052Y17672D02*
G03*
X670052Y17672I-2032J0D01*
G01*
Y67672D02*
G03*
X670052Y67672I-2032J0D01*
G01*
X613156Y331216D02*
G03*
X613156Y331216I-2032J0D01*
G01*
X566020Y97028D02*
G03*
X566020Y97028I-2032J0D01*
G01*
D135*
X80772Y410464D02*
Y414528D01*
X84836D01*
Y410464D01*
X80772D01*
Y512064D02*
Y516128D01*
X84836D01*
Y512064D01*
X80772D01*
Y486664D02*
Y490728D01*
X84836D01*
Y486664D01*
X80772D01*
Y461264D02*
Y465328D01*
X84836D01*
Y461264D01*
X80772D01*
Y435864D02*
Y439928D01*
X84836D01*
Y435864D01*
X80772D01*
Y385064D02*
Y389128D01*
X84836D01*
Y385064D01*
X80772D01*
X323596Y771652D02*
Y775716D01*
X327660D01*
Y771652D01*
X323596D01*
X348996D02*
Y775716D01*
X353060D01*
Y771652D01*
X348996D01*
X374396D02*
Y775716D01*
X378460D01*
Y771652D01*
X374396D01*
X399796D02*
Y775716D01*
X403860D01*
Y771652D01*
X399796D01*
X374396Y277368D02*
X375412D01*
X376428Y278384D01*
X377444Y277368D01*
X378460D01*
Y278384D01*
X377444Y279400D01*
X378460Y280416D01*
Y281432D01*
X377444D01*
X376428Y280416D01*
X375412Y281432D01*
X374396D01*
Y280416D01*
X375412Y279400D01*
X374396Y278384D01*
Y277368D01*
X323596D02*
X324612D01*
X325628Y278384D01*
X326644Y277368D01*
X327660D01*
Y278384D01*
X326644Y279400D01*
X327660Y280416D01*
Y281432D01*
X326644D01*
X325628Y280416D01*
X324612Y281432D01*
X323596D01*
Y280416D01*
X324612Y279400D01*
X323596Y278384D01*
Y277368D01*
X669798Y683006D02*
Y681990D01*
X671830D01*
Y683006D01*
X672846D01*
Y685038D01*
X671830D01*
Y686054D01*
X669798D01*
Y685038D01*
X668782D01*
Y683006D01*
X669798D01*
Y730006D02*
Y728990D01*
X671830D01*
Y730006D01*
X672846D01*
Y732038D01*
X671830D01*
Y733054D01*
X669798D01*
Y732038D01*
X668782D01*
Y730006D01*
X669798D01*
Y777006D02*
Y775990D01*
X671830D01*
Y777006D01*
X672846D01*
Y779038D01*
X671830D01*
Y780054D01*
X669798D01*
Y779038D01*
X668782D01*
Y777006D01*
X669798D01*
X497078Y681990D02*
Y680974D01*
X499110D01*
Y681990D01*
X500126D01*
Y684022D01*
X499110D01*
Y685038D01*
X497078D01*
Y684022D01*
X496062D01*
Y681990D01*
X497078D01*
Y728990D02*
Y727974D01*
X499110D01*
Y728990D01*
X500126D01*
Y731022D01*
X499110D01*
Y732038D01*
X497078D01*
Y731022D01*
X496062D01*
Y728990D01*
X497078D01*
Y775990D02*
Y774974D01*
X499110D01*
Y775990D01*
X500126D01*
Y778022D01*
X499110D01*
Y779038D01*
X497078D01*
Y778022D01*
X496062D01*
Y775990D01*
X497078D01*
X140716Y725424D02*
Y729488D01*
X144780D01*
Y725424D01*
X140716D01*
X242316D02*
Y729488D01*
X246380D01*
Y725424D01*
X242316D01*
X216916D02*
Y729488D01*
X220980D01*
Y725424D01*
X216916D01*
X191516D02*
Y729488D01*
X195580D01*
Y725424D01*
X191516D01*
X166116D02*
Y729488D01*
X170180D01*
Y725424D01*
X166116D01*
X115316D02*
Y729488D01*
X119380D01*
Y725424D01*
X115316D01*
X755396Y611124D02*
X753364Y615188D01*
X757428D01*
X755396Y611124D01*
Y539124D02*
X753364Y543188D01*
X757428D01*
X755396Y539124D01*
X184188Y498348D02*
Y502412D01*
X188252D01*
Y498348D01*
X184188D01*
X234188D02*
Y502412D01*
X238252D01*
Y498348D01*
X234188D01*
X775208Y92964D02*
Y97028D01*
X779272D01*
Y92964D01*
X775208D01*
X749808D02*
Y97028D01*
X753872D01*
Y92964D01*
X749808D01*
X724408D02*
Y97028D01*
X728472D01*
Y92964D01*
X724408D01*
X82296Y595884D02*
Y599948D01*
X86360D01*
Y595884D01*
X82296D01*
Y697484D02*
Y701548D01*
X86360D01*
Y697484D01*
X82296D01*
Y672084D02*
Y676148D01*
X86360D01*
Y672084D01*
X82296D01*
Y646684D02*
Y650748D01*
X86360D01*
Y646684D01*
X82296D01*
Y621284D02*
Y625348D01*
X86360D01*
Y621284D01*
X82296D01*
Y570484D02*
Y574548D01*
X86360D01*
Y570484D01*
X82296D01*
X391668Y36068D02*
Y40132D01*
X395732D01*
Y36068D01*
X391668D01*
X417068D02*
Y40132D01*
X421132D01*
Y36068D01*
X417068D01*
X442468D02*
Y40132D01*
X446532D01*
Y36068D01*
X442468D01*
X467868D02*
Y40132D01*
X471932D01*
Y36068D01*
X467868D01*
X757052Y37968D02*
X758068Y40000D01*
X757052Y42032D01*
X759084Y41016D01*
X761116Y42032D01*
X760100Y40000D01*
X761116Y37968D01*
X759084Y38984D01*
X757052Y37968D01*
X646176Y576580D02*
X647192D01*
X648208Y577596D01*
X649224Y576580D01*
X650240D01*
Y577596D01*
X649224Y578612D01*
X650240Y579628D01*
Y580644D01*
X649224D01*
X648208Y579628D01*
X647192Y580644D01*
X646176D01*
Y579628D01*
X647192Y578612D01*
X646176Y577596D01*
Y576580D01*
Y525780D02*
X647192D01*
X648208Y526796D01*
X649224Y525780D01*
X650240D01*
Y526796D01*
X649224Y527812D01*
X650240Y528828D01*
Y529844D01*
X649224D01*
X648208Y528828D01*
X647192Y529844D01*
X646176D01*
Y528828D01*
X647192Y527812D01*
X646176Y526796D01*
Y525780D01*
X775208Y118364D02*
Y122428D01*
X779272D01*
Y118364D01*
X775208D01*
X749808D02*
Y122428D01*
X753872D01*
Y118364D01*
X749808D01*
X724408D02*
Y122428D01*
X728472D01*
Y118364D01*
X724408D01*
X775208Y143764D02*
Y147828D01*
X779272D01*
Y143764D01*
X775208D01*
X749808D02*
Y147828D01*
X753872D01*
Y143764D01*
X749808D01*
X724408D02*
Y147828D01*
X728472D01*
Y143764D01*
X724408D01*
X552220Y777748D02*
X553236Y778764D01*
X554252D01*
X553236Y779780D01*
X554252Y780796D01*
X553236D01*
X552220Y781812D01*
X551204Y780796D01*
X550188D01*
X551204Y779780D01*
X550188Y778764D01*
X551204D01*
X552220Y777748D01*
X617220D02*
X618236Y778764D01*
X619252D01*
X618236Y779780D01*
X619252Y780796D01*
X618236D01*
X617220Y781812D01*
X616204Y780796D01*
X615188D01*
X616204Y779780D01*
X615188Y778764D01*
X616204D01*
X617220Y777748D01*
X775208Y195072D02*
Y199136D01*
X779272D01*
Y195072D01*
X775208D01*
X749808D02*
Y199136D01*
X753872D01*
Y195072D01*
X749808D01*
X724408D02*
Y199136D01*
X728472D01*
Y195072D01*
X724408D01*
X775208Y169672D02*
Y173736D01*
X779272D01*
Y169672D01*
X775208D01*
X749808D02*
Y173736D01*
X753872D01*
Y169672D01*
X749808D01*
X724408D02*
Y173736D01*
X728472D01*
Y169672D01*
X724408D01*
X775208Y220472D02*
Y224536D01*
X779272D01*
Y220472D01*
X775208D01*
X749808D02*
Y224536D01*
X753872D01*
Y220472D01*
X749808D01*
X724408D02*
Y224536D01*
X728472D01*
Y220472D01*
X724408D01*
X78740Y199136D02*
Y203200D01*
X82804D01*
Y199136D01*
X78740D01*
Y249936D02*
Y254000D01*
X82804D01*
Y249936D01*
X78740D01*
Y275336D02*
Y279400D01*
X82804D01*
Y275336D01*
X78740D01*
Y300736D02*
Y304800D01*
X82804D01*
Y300736D01*
X78740D01*
Y326136D02*
Y330200D01*
X82804D01*
Y326136D01*
X78740D01*
Y224536D02*
Y228600D01*
X82804D01*
Y224536D01*
X78740D01*
X767588Y356108D02*
Y360172D01*
X771652D01*
Y356108D01*
X767588D01*
Y381508D02*
Y385572D01*
X771652D01*
Y381508D01*
X767588D01*
Y406908D02*
Y410972D01*
X771652D01*
Y406908D01*
X767588D01*
Y432308D02*
Y436372D01*
X771652D01*
Y432308D01*
X767588D01*
X260096Y26416D02*
Y30480D01*
X264160D01*
Y26416D01*
X260096D01*
X285496D02*
Y30480D01*
X289560D01*
Y26416D01*
X285496D01*
X310896D02*
Y30480D01*
X314960D01*
Y26416D01*
X310896D01*
X336296D02*
Y30480D01*
X340360D01*
Y26416D01*
X336296D01*
X37968Y37968D02*
X38984Y40000D01*
X37968Y42032D01*
X40000Y41016D01*
X42032Y42032D01*
X41016Y40000D01*
X42032Y37968D01*
X40000Y38984D01*
X37968Y37968D01*
X37084Y760476D02*
X38100Y762508D01*
X37084Y764540D01*
X39116Y763524D01*
X41148Y764540D01*
X40132Y762508D01*
X41148Y760476D01*
X39116Y761492D01*
X37084Y760476D01*
X756920Y759460D02*
X757936Y761492D01*
X756920Y763524D01*
X758952Y762508D01*
X760984Y763524D01*
X759968Y761492D01*
X760984Y759460D01*
X758952Y760476D01*
X756920Y759460D01*
X267486Y270256D02*
X269518Y272288D01*
X271550Y270256D01*
X269518Y268224D01*
X267486Y270256D01*
X278384Y508054D02*
X280416Y510086D01*
X282448Y508054D01*
X280416Y506022D01*
X278384Y508054D01*
X144272Y410204D02*
X146304Y412236D01*
X148336Y410204D01*
X146304Y408172D01*
X144272Y410204D01*
X222504Y654304D02*
X224536Y656336D01*
X226568Y654304D01*
X224536Y652272D01*
X222504Y654304D01*
X223012Y644652D02*
X225044Y646684D01*
X227076Y644652D01*
X225044Y642620D01*
X223012Y644652D01*
X213360Y644144D02*
X215392Y646176D01*
X217424Y644144D01*
X215392Y642112D01*
X213360Y644144D01*
X203708D02*
X205740Y646176D01*
X207772Y644144D01*
X205740Y642112D01*
X203708Y644144D01*
X213868Y654304D02*
X215900Y656336D01*
X217932Y654304D01*
X215900Y652272D01*
X213868Y654304D01*
X170180Y636524D02*
X172212Y638556D01*
X174244Y636524D01*
X172212Y634492D01*
X170180Y636524D01*
X512572Y281940D02*
X514604Y283972D01*
X516636Y281940D01*
X514604Y279908D01*
X512572Y281940D01*
X632460D02*
X634492Y283972D01*
X636524Y281940D01*
X634492Y279908D01*
X632460Y281940D01*
X686816Y268224D02*
X684784Y272288D01*
X688848D01*
X686816Y268224D01*
Y269240D02*
X685800Y271272D01*
X687832D01*
X686816Y269240D01*
X407670Y355092D02*
X409702Y357124D01*
X411734Y355092D01*
X409702Y353060D01*
X407670Y355092D01*
X463296Y298427D02*
Y302491D01*
X467360D01*
Y298427D01*
X463296D01*
X464312Y299443D02*
Y301475D01*
X466344D01*
Y299443D01*
X464312D01*
X396748Y364236D02*
Y368300D01*
X400812D01*
Y364236D01*
X396748D01*
X397764Y365252D02*
Y367284D01*
X399796D01*
Y365252D01*
X397764D01*
X240284Y355092D02*
X242316Y357124D01*
X244348Y355092D01*
X242316Y353060D01*
X240284Y355092D01*
X130302Y384302D02*
X132334Y386334D01*
X134366Y384302D01*
X132334Y382270D01*
X130302Y384302D01*
X692404Y487172D02*
X694436Y489204D01*
X696468Y487172D01*
X694436Y485140D01*
X692404Y487172D01*
X722884Y488188D02*
X724916Y490220D01*
X726948Y488188D01*
X724916Y486156D01*
X722884Y488188D01*
X296520Y670408D02*
X298552Y672440D01*
X300584Y670408D01*
X298552Y668376D01*
X296520Y670408D01*
X340360Y613156D02*
X342392Y615188D01*
X344424Y613156D01*
X342392Y611124D01*
X340360Y613156D01*
X466852Y658368D02*
X468884Y660400D01*
X470916Y658368D01*
X468884Y656336D01*
X466852Y658368D01*
X469392Y504444D02*
X471424Y506476D01*
X473456Y504444D01*
X471424Y502412D01*
X469392Y504444D01*
X585401Y623872D02*
X587433Y625904D01*
X589465Y623872D01*
X587433Y621840D01*
X585401Y623872D01*
X574548Y636905D02*
X576580Y638937D01*
X578612Y636905D01*
X576580Y634873D01*
X574548Y636905D01*
X569468Y608076D02*
X571500Y610108D01*
X573532Y608076D01*
X571500Y606044D01*
X569468Y608076D01*
X568960Y653288D02*
X570992Y655320D01*
X573024Y653288D01*
X570992Y651256D01*
X568960Y653288D01*
X753872Y284480D02*
X751840Y288544D01*
X755904D01*
X753872Y284480D01*
Y285496D02*
X752856Y287528D01*
X754888D01*
X753872Y285496D01*
X488471Y367284D02*
X490503Y369316D01*
X492535Y367284D01*
X490503Y365252D01*
X488471Y367284D01*
X488188Y377571D02*
X490220Y379603D01*
X492252Y377571D01*
X490220Y375539D01*
X488188Y377571D01*
Y387858D02*
X490220Y389890D01*
X492252Y387858D01*
X490220Y385826D01*
X488188Y387858D01*
Y398145D02*
X490220Y400177D01*
X492252Y398145D01*
X490220Y396113D01*
X488188Y398145D01*
Y408432D02*
X490220Y410464D01*
X492252Y408432D01*
X490220Y406400D01*
X488188Y408432D01*
X495300Y367284D02*
X497332Y369316D01*
X499364Y367284D01*
X497332Y365252D01*
X495300Y367284D01*
Y408432D02*
X497332Y410464D01*
X499364Y408432D01*
X497332Y406400D01*
X495300Y408432D01*
Y387858D02*
X497332Y389890D01*
X499364Y387858D01*
X497332Y385826D01*
X495300Y387858D01*
Y377571D02*
X497332Y379603D01*
X499364Y377571D01*
X497332Y375539D01*
X495300Y377571D01*
Y398145D02*
X497332Y400177D01*
X499364Y398145D01*
X497332Y396113D01*
X495300Y398145D01*
X502412D02*
X504444Y400177D01*
X506476Y398145D01*
X504444Y396113D01*
X502412Y398145D01*
X480568Y509016D02*
X482600Y511048D01*
X484632Y509016D01*
X482600Y506984D01*
X480568Y509016D01*
X357124Y184876D02*
X359156Y186908D01*
X361188Y184876D01*
X359156Y182844D01*
X357124Y184876D01*
X607060Y19812D02*
Y23876D01*
X611124D01*
Y19812D01*
X607060D01*
X608076Y20828D02*
Y22860D01*
X610108D01*
Y20828D01*
X608076D01*
X399796Y201676D02*
X401828Y203708D01*
X403860Y201676D01*
X401828Y199644D01*
X399796Y201676D01*
X393230Y610904D02*
X395262Y612936D01*
X397294Y610904D01*
X395262Y608872D01*
X393230Y610904D01*
X352552Y430276D02*
X354584Y432308D01*
X356616Y430276D01*
X354584Y428244D01*
X352552Y430276D01*
X282448Y547116D02*
X284480Y549148D01*
X286512Y547116D01*
X284480Y545084D01*
X282448Y547116D01*
X374904Y322580D02*
X376936Y324612D01*
X378968Y322580D01*
X376936Y320548D01*
X374904Y322580D01*
X372364Y333248D02*
X374396Y335280D01*
X376428Y333248D01*
X374396Y331216D01*
X372364Y333248D01*
X502412Y367284D02*
X504444Y369316D01*
X506476Y367284D01*
X504444Y365252D01*
X502412Y367284D01*
Y377571D02*
X504444Y379603D01*
X506476Y377571D01*
X504444Y375539D01*
X502412Y377571D01*
Y387858D02*
X504444Y389890D01*
X506476Y387858D01*
X504444Y385826D01*
X502412Y387858D01*
Y408432D02*
X504444Y410464D01*
X506476Y408432D01*
X504444Y406400D01*
X502412Y408432D01*
X531152Y385098D02*
X533184Y387130D01*
X535216Y385098D01*
X533184Y383066D01*
X531152Y385098D01*
X531876Y395224D02*
X533908Y397256D01*
X535940Y395224D01*
X533908Y393192D01*
X531876Y395224D01*
X549148Y395732D02*
X551180Y397764D01*
X553212Y395732D01*
X551180Y393700D01*
X549148Y395732D01*
X541020D02*
X543052Y397764D01*
X545084Y395732D01*
X543052Y393700D01*
X541020Y395732D01*
Y385064D02*
X543052Y387096D01*
X545084Y385064D01*
X543052Y383032D01*
X541020Y385064D01*
X549148D02*
X551180Y387096D01*
X553212Y385064D01*
X551180Y383032D01*
X549148Y385064D01*
X461137Y720344D02*
X463169Y722376D01*
X465201Y720344D01*
X463169Y718312D01*
X461137Y720344D01*
X447548Y733552D02*
X449580Y735584D01*
X451612Y733552D01*
X449580Y731520D01*
X447548Y733552D01*
X438912Y695452D02*
X440944Y697484D01*
X442976Y695452D01*
X440944Y693420D01*
X438912Y695452D01*
X451612Y742188D02*
X453644Y744220D01*
X455676Y742188D01*
X453644Y740156D01*
X451612Y742188D01*
X517652Y635508D02*
X519684Y637540D01*
X521716Y635508D01*
X519684Y633476D01*
X517652Y635508D01*
X399580Y460282D02*
X401612Y462314D01*
X403644Y460282D01*
X401612Y458250D01*
X399580Y460282D01*
X436156Y549182D02*
X438188Y551214D01*
X440220Y549182D01*
X438188Y547150D01*
X436156Y549182D01*
X685292Y496316D02*
X687324Y498348D01*
X689356Y496316D01*
X687324Y494284D01*
X685292Y496316D01*
X671631Y548848D02*
X673663Y550880D01*
X675695Y548848D01*
X673663Y546816D01*
X671631Y548848D01*
X725932Y704596D02*
X727964Y706628D01*
X729996Y704596D01*
X727964Y702564D01*
X725932Y704596D01*
X290379Y753447D02*
X292411Y755479D01*
X294443Y753447D01*
X292411Y751415D01*
X290379Y753447D01*
X243840Y693420D02*
X245872Y695452D01*
X247904Y693420D01*
X245872Y691388D01*
X243840Y693420D01*
X371348Y669036D02*
X373380Y671068D01*
X375412Y669036D01*
X373380Y667004D01*
X371348Y669036D01*
X383032Y665988D02*
X385064Y668020D01*
X387096Y665988D01*
X385064Y663956D01*
X383032Y665988D01*
X390652Y572008D02*
X392684Y574040D01*
X394716Y572008D01*
X392684Y569976D01*
X390652Y572008D01*
X324612Y572516D02*
X326644Y574548D01*
X328676Y572516D01*
X326644Y570484D01*
X324612Y572516D01*
X435336Y452100D02*
X437368Y454132D01*
X439400Y452100D01*
X437368Y450068D01*
X435336Y452100D01*
X256691Y548821D02*
X258723Y550853D01*
X260755Y548821D01*
X258723Y546789D01*
X256691Y548821D01*
X245364Y636016D02*
X247396Y638048D01*
X249428Y636016D01*
X247396Y633984D01*
X245364Y636016D01*
X324612Y330708D02*
X326644Y332740D01*
X328676Y330708D01*
X326644Y328676D01*
X324612Y330708D01*
X247396Y304800D02*
X249428Y306832D01*
X251460Y304800D01*
X249428Y302768D01*
X247396Y304800D01*
X296164Y438404D02*
X298196Y440436D01*
X300228Y438404D01*
X298196Y436372D01*
X296164Y438404D01*
X289075Y446441D02*
X291107Y448473D01*
X293139Y446441D01*
X291107Y444409D01*
X289075Y446441D01*
X183018Y317397D02*
X185050Y319429D01*
X187082Y317397D01*
X185050Y315365D01*
X183018Y317397D01*
X406400Y390144D02*
X408432Y392176D01*
X410464Y390144D01*
X408432Y388112D01*
X406400Y390144D01*
X392684Y427228D02*
X394716Y429260D01*
X396748Y427228D01*
X394716Y425196D01*
X392684Y427228D01*
X435356Y443484D02*
X437388Y445516D01*
X439420Y443484D01*
X437388Y441452D01*
X435356Y443484D01*
X380492Y427228D02*
X382524Y429260D01*
X384556Y427228D01*
X382524Y425196D01*
X380492Y427228D01*
X393954Y408813D02*
X395986Y410845D01*
X398018Y408813D01*
X395986Y406781D01*
X393954Y408813D01*
X144780Y669036D02*
X146812Y671068D01*
X148844Y669036D01*
X146812Y667004D01*
X144780Y669036D01*
Y646176D02*
X146812Y648208D01*
X148844Y646176D01*
X146812Y644144D01*
X144780Y646176D01*
X146304Y550164D02*
X148336Y552196D01*
X150368Y550164D01*
X148336Y548132D01*
X146304Y550164D01*
X187452Y449072D02*
X189484Y451104D01*
X191516Y449072D01*
X189484Y447040D01*
X187452Y449072D01*
X382016Y656844D02*
X384048Y658876D01*
X386080Y656844D01*
X384048Y654812D01*
X382016Y656844D01*
X301752Y390144D02*
X303784Y392176D01*
X305816Y390144D01*
X303784Y388112D01*
X301752Y390144D01*
X784860Y686308D02*
X786892Y688340D01*
X788924Y686308D01*
X786892Y684276D01*
X784860Y686308D01*
X684784Y220980D02*
X686816Y223012D01*
X688848Y220980D01*
X686816Y218948D01*
X684784Y220980D01*
X582168Y233680D02*
X584200Y235712D01*
X586232Y233680D01*
X584200Y231648D01*
X582168Y233680D01*
X224536Y551688D02*
X226568Y553720D01*
X228600Y551688D01*
X226568Y549656D01*
X224536Y551688D01*
X198120Y591820D02*
X200152Y593852D01*
X202184Y591820D01*
X200152Y589788D01*
X198120Y591820D01*
X186436Y591312D02*
X188468Y593344D01*
X190500Y591312D01*
X188468Y589280D01*
X186436Y591312D01*
Y581660D02*
X188468Y583692D01*
X190500Y581660D01*
X188468Y579628D01*
X186436Y581660D01*
Y572008D02*
X188468Y574040D01*
X190500Y572008D01*
X188468Y569976D01*
X186436Y572008D01*
X198628D02*
X200660Y574040D01*
X202692Y572008D01*
X200660Y569976D01*
X198628Y572008D01*
Y581660D02*
X200660Y583692D01*
X202692Y581660D01*
X200660Y579628D01*
X198628Y581660D01*
X246380Y618744D02*
X248412Y620776D01*
X250444Y618744D01*
X248412Y616712D01*
X246380Y618744D01*
X345440Y545084D02*
X347472Y547116D01*
X349504Y545084D01*
X347472Y543052D01*
X345440Y545084D01*
X138176Y471750D02*
X140208Y473782D01*
X142240Y471750D01*
X140208Y469718D01*
X138176Y471750D01*
X330708Y522732D02*
X332740Y524764D01*
X334772Y522732D01*
X332740Y520700D01*
X330708Y522732D01*
X225552Y470916D02*
X227584Y472948D01*
X229616Y470916D01*
X227584Y468884D01*
X225552Y470916D01*
X314960Y481076D02*
X316992Y483108D01*
X319024Y481076D01*
X316992Y479044D01*
X314960Y481076D01*
X334772Y512572D02*
X336804Y514604D01*
X338836Y512572D01*
X336804Y510540D01*
X334772Y512572D01*
X411480Y730504D02*
X413512Y732536D01*
X415544Y730504D01*
X413512Y728472D01*
X411480Y730504D01*
X356616Y693420D02*
X358648Y695452D01*
X360680Y693420D01*
X358648Y691388D01*
X356616Y693420D01*
X368300Y704088D02*
X370332Y706120D01*
X372364Y704088D01*
X370332Y702056D01*
X368300Y704088D01*
X151391Y697172D02*
X153423Y699204D01*
X155455Y697172D01*
X153423Y695140D01*
X151391Y697172D01*
X136683Y579151D02*
X138715Y581183D01*
X140747Y579151D01*
X138715Y577119D01*
X136683Y579151D01*
X204216Y654304D02*
X206248Y656336D01*
X208280Y654304D01*
X206248Y652272D01*
X204216Y654304D01*
X466344Y543583D02*
X468376Y545615D01*
X470408Y543583D01*
X468376Y541551D01*
X466344Y543583D01*
X242824Y533908D02*
X244856Y535940D01*
X246888Y533908D01*
X244856Y531876D01*
X242824Y533908D01*
X676148Y228092D02*
X678180Y230124D01*
X680212Y228092D01*
X678180Y226060D01*
X676148Y228092D01*
X333756Y443992D02*
X335788Y446024D01*
X337820Y443992D01*
X335788Y441960D01*
X333756Y443992D01*
X681228Y163576D02*
X683260Y165608D01*
X685292Y163576D01*
X683260Y161544D01*
X681228Y163576D01*
X339496Y453644D02*
X341529Y455676D01*
X343560Y453644D01*
X341529Y451612D01*
X339496Y453644D01*
X252984D02*
X255016Y455676D01*
X257048Y453644D01*
X255016Y451612D01*
X252984Y453644D01*
X279400Y586232D02*
X281432Y588264D01*
X283464Y586232D01*
X281432Y584200D01*
X279400Y586232D01*
X383540Y238760D02*
X385572Y240792D01*
X387604Y238760D01*
X385572Y236728D01*
X383540Y238760D01*
X307467Y173088D02*
X309499Y175120D01*
X311531Y173088D01*
X309499Y171056D01*
X307467Y173088D01*
X302260Y103124D02*
X304292Y105156D01*
X306324Y103124D01*
X304292Y101092D01*
X302260Y103124D01*
X295656Y94996D02*
X297688Y97028D01*
X299720Y94996D01*
X297688Y92964D01*
X295656Y94996D01*
X327152Y101079D02*
Y105143D01*
X331216D01*
Y101079D01*
X327152D01*
X328168Y102095D02*
Y104127D01*
X330200D01*
Y102095D01*
X328168D01*
X153924Y257048D02*
X155956Y259080D01*
X157988Y257048D01*
X155956Y255016D01*
X153924Y257048D01*
X196088Y275844D02*
X198120Y277876D01*
X200152Y275844D01*
X198120Y273812D01*
X196088Y275844D01*
X208280D02*
X210312Y277876D01*
X212344Y275844D01*
X210312Y273812D01*
X208280Y275844D01*
Y285496D02*
X210312Y287528D01*
X212344Y285496D01*
X210312Y283464D01*
X208280Y285496D01*
X196088D02*
X198120Y287528D01*
X200152Y285496D01*
X198120Y283464D01*
X196088Y285496D01*
X195580Y294640D02*
X197612Y296672D01*
X199644Y294640D01*
X197612Y292608D01*
X195580Y294640D01*
X208280Y295148D02*
X210312Y297180D01*
X212344Y295148D01*
X210312Y293116D01*
X208280Y295148D01*
X169452Y331724D02*
X171484Y333756D01*
X173516Y331724D01*
X171484Y329692D01*
X169452Y331724D01*
X421132Y621455D02*
X423164Y623487D01*
X425196Y621455D01*
X423164Y619423D01*
X421132Y621455D01*
X446532Y531368D02*
X448564Y533400D01*
X450596Y531368D01*
X448564Y529336D01*
X446532Y531368D01*
X657352Y140208D02*
X659384Y142240D01*
X661416Y140208D01*
X659384Y138176D01*
X657352Y140208D01*
X650748Y170688D02*
X652780Y172720D01*
X654812Y170688D01*
X652780Y168656D01*
X650748Y170688D01*
X611632Y248412D02*
X613664Y250444D01*
X615696Y248412D01*
X613664Y246380D01*
X611632Y248412D01*
X667512Y98552D02*
X669544Y100584D01*
X671576Y98552D01*
X669544Y96520D01*
X667512Y98552D01*
X207772Y414020D02*
X209804Y416052D01*
X211836Y414020D01*
X209804Y411988D01*
X207772Y414020D01*
X197104D02*
X199136Y416052D01*
X201168Y414020D01*
X199136Y411988D01*
X197104Y414020D01*
X198120Y401320D02*
X200152Y403352D01*
X202184Y401320D01*
X200152Y399288D01*
X198120Y401320D01*
X210312Y401828D02*
X212344Y403860D01*
X214376Y401828D01*
X212344Y399796D01*
X210312Y401828D01*
X610108Y741172D02*
X612140Y743204D01*
X614172Y741172D01*
X612140Y739140D01*
X610108Y741172D01*
X238760Y265176D02*
X240792Y267208D01*
X242824Y265176D01*
X240792Y263144D01*
X238760Y265176D01*
X196088Y133096D02*
X198120Y135128D01*
X200152Y133096D01*
X198120Y131064D01*
X196088Y133096D01*
X35560Y116332D02*
X37592Y118364D01*
X39624Y116332D01*
X37592Y114300D01*
X35560Y116332D01*
X275590Y205232D02*
X277622Y207264D01*
X279654Y205232D01*
X277622Y203200D01*
X275590Y205232D01*
X272288Y195580D02*
X274320Y197612D01*
X276352Y195580D01*
X274320Y193548D01*
X272288Y195580D01*
X371221Y251460D02*
X373253Y253492D01*
X375285Y251460D01*
X373253Y249428D01*
X371221Y251460D01*
X376936Y243332D02*
X378968Y245364D01*
X381000Y243332D01*
X378968Y241300D01*
X376936Y243332D01*
X130810Y162306D02*
X132842Y164338D01*
X134874Y162306D01*
X132842Y160274D01*
X130810Y162306D01*
X169164Y88900D02*
X171196Y90932D01*
X173228Y88900D01*
X171196Y86868D01*
X169164Y88900D01*
X140615Y31035D02*
X142647Y33067D01*
X144678Y31035D01*
X142647Y29003D01*
X140615Y31035D01*
X160528Y30480D02*
X162560Y32512D01*
X164592Y30480D01*
X162560Y28448D01*
X160528Y30480D01*
X114808Y72136D02*
X116840Y74168D01*
X118872Y72136D01*
X116840Y70104D01*
X114808Y72136D01*
X108712Y32512D02*
X110744Y34544D01*
X112776Y32512D01*
X110744Y30480D01*
X108712Y32512D01*
X298196Y270256D02*
X300228Y272288D01*
X302260Y270256D01*
X300228Y268224D01*
X298196Y270256D01*
X143256Y183388D02*
X145288Y185420D01*
X147320Y183388D01*
X145288Y181356D01*
X143256Y183388D01*
X235712Y205232D02*
Y209296D01*
X239776D01*
Y205232D01*
X235712D01*
X236728Y206248D02*
Y208280D01*
X238760D01*
Y206248D01*
X236728D01*
X173736Y46228D02*
X175768Y48260D01*
X177800Y46228D01*
X175768Y44196D01*
X173736Y46228D01*
X273304Y216408D02*
X275336Y218440D01*
X277368Y216408D01*
X275336Y214376D01*
X273304Y216408D01*
X129540Y225044D02*
X131572Y227076D01*
X133604Y225044D01*
X131572Y223012D01*
X129540Y225044D01*
X152908Y278384D02*
X154940Y280416D01*
X156972Y278384D01*
X154940Y276352D01*
X152908Y278384D01*
X199644Y392684D02*
X201676Y394716D01*
X203708Y392684D01*
X201676Y390652D01*
X199644Y392684D01*
X211836Y392176D02*
X213868Y394208D01*
X215900Y392176D01*
X213868Y390144D01*
X211836Y392176D01*
D136*
X612140Y331216D02*
G03*
X612140Y331216I-1016J0D01*
G01*
X565004Y97028D02*
G03*
X565004Y97028I-1016J0D01*
G01*
M02*
