G04*
G04 #@! TF.GenerationSoftware,Altium Limited,Altium Designer,23.3.1 (30)*
G04*
G04 Layer_Color=16711935*
%FSLAX44Y44*%
%MOMM*%
G71*
G04*
G04 #@! TF.SameCoordinates,E1D300C1-D630-478A-AE1F-60CBEBB5A271*
G04*
G04*
G04 #@! TF.FilePolarity,Positive*
G04*
G01*
G75*
%ADD11C,0.2540*%
D11*
X83566Y5588D02*
G03*
X88646Y508I5080J0D01*
G01*
X40248Y799778D02*
G03*
X617Y760661I-139J-39494D01*
G01*
X799594Y760217D02*
G03*
X760476Y799848I-39494J139D01*
G01*
X759709Y507D02*
G03*
X799340Y39624I139J39494D01*
G01*
X80539Y90170D02*
G03*
X84201Y93832I0J3662D01*
G01*
X72789Y94107D02*
G03*
X76726Y90170I3937J0D01*
G01*
X217295Y89916D02*
G03*
X222375Y94996I0J5080D01*
G01*
X151255Y119888D02*
G03*
X156335Y114808I5080J0D01*
G01*
X210945Y109728D02*
G03*
X205865Y114808I-5080J0D01*
G01*
X156335Y126238D02*
G03*
X151255Y121158I0J-5080D01*
G01*
X210945Y94996D02*
G03*
X216025Y89916I5080J0D01*
G01*
X222375Y121158D02*
G03*
X217295Y126238I-5080J0D01*
G01*
X115951Y121158D02*
G03*
X110871Y126238I-5080J0D01*
G01*
X110871Y114808D02*
G03*
X115951Y119888I0J5080D01*
G01*
X77851Y126238D02*
G03*
X72771Y121158I0J-5080D01*
G01*
X89281Y114808D02*
G03*
X84201Y109728I0J-5080D01*
G01*
X205232Y508D02*
G03*
X210312Y5588I0J5080D01*
G01*
X221740Y5588D02*
G03*
X226820Y508I5080J0D01*
G01*
X221740Y70358D02*
G03*
X216660Y75438I-5080J0D01*
G01*
X215390Y75438D02*
G03*
X210310Y70358I0J-5080D01*
G01*
X507Y40139D02*
G03*
X39624Y508I39494J-139D01*
G01*
X77216Y70866D02*
G03*
X72136Y65786I0J-5080D01*
G01*
X83566Y65786D02*
G03*
X78486Y70866I-5080J0D01*
G01*
X67058Y508D02*
G03*
X72138Y5588I0J5080D01*
G01*
X83566Y5588D02*
X83820Y65532D01*
X88646Y508D02*
X205232D01*
X224788Y-2D02*
X764540Y508D01*
X77216Y70866D02*
X78486D01*
X76726Y90170D02*
X80539D01*
X84201Y93832D02*
Y109728D01*
X72771Y121158D02*
X72789Y94107D01*
X216025Y89916D02*
X217295D01*
X222375Y95504D02*
Y121158D01*
X210945Y95504D02*
Y109728D01*
X151255Y119888D02*
Y121158D01*
X156335Y126238D02*
X217295D01*
X156335Y114808D02*
X205865D01*
X77851Y126238D02*
X110871D01*
X89281Y114808D02*
X110871D01*
X115951Y119888D02*
Y121158D01*
X210310Y5588D02*
Y70104D01*
X221740Y5588D02*
Y70104D01*
X215390Y75438D02*
X216660D01*
X38617Y799492D02*
X763016D01*
X799492Y765048D02*
X799492Y36068D01*
X508Y765048D02*
X508Y40141D01*
X39624Y508D02*
X67058D01*
X72136Y5588D02*
X72136Y65532D01*
M02*
