G04*
G04 #@! TF.GenerationSoftware,Altium Limited,Altium Designer,23.3.1 (30)*
G04*
G04 Layer_Color=32896*
%FSLAX44Y44*%
%MOMM*%
G71*
G04*
G04 #@! TF.SameCoordinates,E1D300C1-D630-478A-AE1F-60CBEBB5A271*
G04*
G04*
G04 #@! TF.FilePolarity,Positive*
G04*
G01*
G75*
%ADD11C,0.2540*%
%ADD16C,0.2032*%
%ADD19C,0.1524*%
%ADD21C,0.1016*%
G36*
X542102Y271414D02*
X537305D01*
Y276888D01*
X542102D01*
Y271414D01*
D02*
G37*
G36*
X520938Y266730D02*
X522179Y266504D01*
X523308Y266165D01*
X524267Y265826D01*
X525058Y265488D01*
X525622Y265149D01*
X525848Y265036D01*
X526017Y264923D01*
X526073Y264867D01*
X526130D01*
X527089Y264133D01*
X527936Y263230D01*
X528670Y262384D01*
X529291Y261537D01*
X529742Y260747D01*
X530081Y260126D01*
X530193Y259900D01*
X530306Y259731D01*
X530363Y259618D01*
Y259562D01*
X530871Y258264D01*
X531209Y256966D01*
X531492Y255724D01*
X531661Y254595D01*
X531774Y253579D01*
Y253184D01*
X531830Y252789D01*
Y252507D01*
Y252281D01*
Y252168D01*
Y252112D01*
X531774Y251040D01*
X531717Y249967D01*
X531322Y248048D01*
X531096Y247145D01*
X530814Y246355D01*
X530532Y245565D01*
X530250Y244888D01*
X529968Y244210D01*
X529686Y243646D01*
X529403Y243195D01*
X529178Y242743D01*
X528952Y242461D01*
X528783Y242179D01*
X528726Y242066D01*
X528670Y242009D01*
X528049Y241276D01*
X527372Y240655D01*
X526638Y240090D01*
X525904Y239582D01*
X525114Y239187D01*
X524380Y238849D01*
X523647Y238566D01*
X522913Y238341D01*
X522236Y238171D01*
X521615Y238059D01*
X521050Y237946D01*
X520542Y237889D01*
X520147D01*
X519865Y237833D01*
X519583D01*
X518736Y237889D01*
X517890Y238002D01*
X517100Y238171D01*
X516366Y238397D01*
X515068Y239018D01*
X513883Y239695D01*
X513431Y240034D01*
X512980Y240373D01*
X512585Y240711D01*
X512302Y240993D01*
X512077Y241219D01*
X511907Y241388D01*
X511795Y241501D01*
X511738Y241558D01*
Y240711D01*
Y239977D01*
X511795Y239244D01*
Y238623D01*
Y238059D01*
X511851Y237551D01*
Y237099D01*
X511907Y236704D01*
X511964Y236140D01*
X512020Y235688D01*
X512077Y235462D01*
Y235406D01*
X512359Y234559D01*
X512754Y233826D01*
X513149Y233205D01*
X513544Y232640D01*
X513939Y232245D01*
X514278Y231907D01*
X514504Y231737D01*
X514560Y231681D01*
X515294Y231229D01*
X516140Y230891D01*
X516987Y230665D01*
X517777Y230496D01*
X518567Y230383D01*
X519132Y230326D01*
X519696D01*
X520768Y230383D01*
X521784Y230552D01*
X522631Y230778D01*
X523308Y231060D01*
X523872Y231286D01*
X524267Y231512D01*
X524493Y231681D01*
X524606Y231737D01*
X525058Y232132D01*
X525396Y232640D01*
X525678Y233148D01*
X525904Y233656D01*
X526017Y234164D01*
X526130Y234559D01*
X526186Y234785D01*
Y234898D01*
X530871Y235519D01*
Y234672D01*
X530758Y233939D01*
X530645Y233205D01*
X530476Y232528D01*
X529968Y231342D01*
X529403Y230383D01*
X528839Y229649D01*
X528387Y229141D01*
X527992Y228803D01*
X527936Y228746D01*
X527879Y228690D01*
X526638Y227900D01*
X525283Y227335D01*
X523929Y226940D01*
X522631Y226658D01*
X522010Y226545D01*
X521446Y226489D01*
X520994Y226432D01*
X520542D01*
X520204Y226376D01*
X519696D01*
X518172Y226432D01*
X516761Y226658D01*
X515519Y226884D01*
X514504Y227222D01*
X513657Y227505D01*
X513318Y227617D01*
X513036Y227787D01*
X512810Y227843D01*
X512641Y227956D01*
X512585Y228012D01*
X512528D01*
X511512Y228633D01*
X510609Y229367D01*
X509875Y230101D01*
X509255Y230778D01*
X508803Y231399D01*
X508521Y231907D01*
X508295Y232245D01*
X508239Y232302D01*
Y232358D01*
X508013Y232923D01*
X507787Y233543D01*
X507618Y234221D01*
X507449Y234954D01*
X507223Y236535D01*
X507054Y238059D01*
X506997Y238792D01*
X506941Y239470D01*
Y240090D01*
X506884Y240598D01*
Y241050D01*
Y241388D01*
Y241614D01*
Y241671D01*
Y266165D01*
X511287D01*
Y262666D01*
X511907Y263400D01*
X512585Y264020D01*
X513262Y264585D01*
X513939Y265036D01*
X514673Y265431D01*
X515350Y265770D01*
X516027Y266052D01*
X516648Y266278D01*
X517269Y266447D01*
X517833Y266560D01*
X518341Y266673D01*
X518736Y266730D01*
X519075Y266786D01*
X519583D01*
X520938Y266730D01*
D02*
G37*
G36*
X589285D02*
X590301Y266617D01*
X591260Y266447D01*
X592163Y266165D01*
X593010Y265883D01*
X593800Y265544D01*
X594534Y265206D01*
X595155Y264811D01*
X595775Y264472D01*
X596283Y264077D01*
X596735Y263738D01*
X597074Y263456D01*
X597356Y263174D01*
X597581Y263004D01*
X597694Y262892D01*
X597751Y262835D01*
X598372Y262045D01*
X598936Y261199D01*
X599444Y260352D01*
X599895Y259449D01*
X600234Y258489D01*
X600516Y257586D01*
X600968Y255780D01*
X601137Y254990D01*
X601250Y254200D01*
X601306Y253523D01*
X601363Y252902D01*
X601419Y252394D01*
Y252055D01*
Y251773D01*
Y251717D01*
X601363Y250475D01*
X601250Y249290D01*
X601081Y248161D01*
X600855Y247145D01*
X600573Y246186D01*
X600290Y245283D01*
X599952Y244493D01*
X599613Y243759D01*
X599275Y243138D01*
X598936Y242574D01*
X598654Y242122D01*
X598372Y241727D01*
X598146Y241388D01*
X597976Y241163D01*
X597864Y241050D01*
X597807Y240993D01*
X597074Y240316D01*
X596340Y239752D01*
X595550Y239244D01*
X594703Y238792D01*
X593913Y238454D01*
X593066Y238115D01*
X591486Y237663D01*
X590752Y237551D01*
X590075Y237438D01*
X589454Y237325D01*
X588946Y237268D01*
X588551Y237212D01*
X587930D01*
X586181Y237325D01*
X584600Y237607D01*
X583190Y237946D01*
X582625Y238171D01*
X582061Y238397D01*
X581553Y238623D01*
X581101Y238849D01*
X580763Y239018D01*
X580424Y239187D01*
X580198Y239357D01*
X580029Y239470D01*
X579916Y239582D01*
X579860D01*
X578731Y240598D01*
X577828Y241671D01*
X577038Y242799D01*
X576473Y243872D01*
X576022Y244831D01*
X575853Y245283D01*
X575683Y245621D01*
X575570Y245960D01*
X575514Y246186D01*
X575457Y246299D01*
Y246355D01*
X580424Y246976D01*
X580876Y245903D01*
X581384Y245000D01*
X581891Y244210D01*
X582343Y243590D01*
X582738Y243138D01*
X583077Y242799D01*
X583359Y242574D01*
X583415Y242517D01*
X584149Y242066D01*
X584883Y241727D01*
X585673Y241501D01*
X586350Y241332D01*
X586971Y241219D01*
X587479Y241163D01*
X587930D01*
X588608Y241219D01*
X589229Y241276D01*
X590357Y241558D01*
X591373Y241953D01*
X592276Y242404D01*
X592953Y242799D01*
X593461Y243195D01*
X593800Y243477D01*
X593857Y243590D01*
X593913D01*
X594703Y244606D01*
X595324Y245734D01*
X595775Y246976D01*
X596114Y248105D01*
X596283Y249121D01*
X596396Y249572D01*
X596453Y249967D01*
Y250306D01*
X596509Y250532D01*
Y250701D01*
Y250757D01*
X575345D01*
X575288Y251322D01*
Y251717D01*
Y251943D01*
Y251999D01*
X575345Y253297D01*
X575457Y254482D01*
X575627Y255611D01*
X575853Y256683D01*
X576135Y257643D01*
X576417Y258546D01*
X576755Y259336D01*
X577094Y260070D01*
X577433Y260747D01*
X577771Y261311D01*
X578054Y261763D01*
X578336Y262158D01*
X578562Y262497D01*
X578731Y262722D01*
X578844Y262835D01*
X578900Y262892D01*
X579577Y263569D01*
X580311Y264190D01*
X581101Y264698D01*
X581891Y265149D01*
X582682Y265544D01*
X583415Y265826D01*
X584205Y266109D01*
X584883Y266278D01*
X585616Y266447D01*
X586237Y266560D01*
X586802Y266673D01*
X587253Y266730D01*
X587648Y266786D01*
X588213D01*
X589285Y266730D01*
D02*
G37*
G36*
X638556Y237833D02*
X624503D01*
X623205Y237889D01*
X622019Y237946D01*
X620947Y238059D01*
X620044Y238171D01*
X619254Y238284D01*
X618689Y238341D01*
X618520Y238397D01*
X618351Y238454D01*
X618238D01*
X617222Y238736D01*
X616319Y239074D01*
X615529Y239357D01*
X614852Y239695D01*
X614287Y239977D01*
X613892Y240203D01*
X613666Y240373D01*
X613554Y240429D01*
X612820Y240937D01*
X612199Y241558D01*
X611578Y242122D01*
X611070Y242687D01*
X610619Y243195D01*
X610280Y243590D01*
X610054Y243872D01*
X609998Y243985D01*
X609434Y244888D01*
X608869Y245847D01*
X608418Y246750D01*
X608079Y247653D01*
X607740Y248443D01*
X607515Y249064D01*
X607458Y249290D01*
X607402Y249459D01*
X607345Y249572D01*
Y249629D01*
X607007Y250983D01*
X606725Y252338D01*
X606555Y253636D01*
X606386Y254877D01*
X606329Y255950D01*
Y256401D01*
X606273Y256796D01*
Y257078D01*
Y257361D01*
Y257474D01*
Y257530D01*
X606329Y259449D01*
X606499Y261199D01*
X606781Y262779D01*
X606894Y263512D01*
X607063Y264133D01*
X607233Y264754D01*
X607345Y265262D01*
X607458Y265714D01*
X607627Y266109D01*
X607684Y266447D01*
X607797Y266673D01*
X607853Y266786D01*
Y266842D01*
X608474Y268310D01*
X609208Y269608D01*
X609998Y270737D01*
X610732Y271696D01*
X611409Y272486D01*
X611973Y273051D01*
X612199Y273220D01*
X612368Y273389D01*
X612425Y273446D01*
X612481Y273502D01*
X613384Y274236D01*
X614344Y274800D01*
X615303Y275308D01*
X616206Y275703D01*
X616996Y275985D01*
X617617Y276155D01*
X617843Y276268D01*
X618012D01*
X618125Y276324D01*
X618182D01*
X619141Y276493D01*
X620270Y276663D01*
X621399Y276776D01*
X622527Y276832D01*
X623543Y276888D01*
X638556D01*
Y237833D01*
D02*
G37*
G36*
X542102D02*
X537305D01*
Y266165D01*
X542102D01*
Y237833D01*
D02*
G37*
G36*
X487413Y266730D02*
X488429Y266560D01*
X489332Y266334D01*
X490235Y266052D01*
X491025Y265714D01*
X491759Y265319D01*
X492436Y264867D01*
X493000Y264472D01*
X493565Y264020D01*
X494016Y263569D01*
X494411Y263174D01*
X494750Y262835D01*
X494976Y262553D01*
X495145Y262327D01*
X495258Y262158D01*
X495314Y262101D01*
Y266165D01*
X499604D01*
Y237833D01*
X494806D01*
Y253241D01*
Y254200D01*
X494693Y255159D01*
X494581Y255950D01*
X494468Y256683D01*
X494298Y257361D01*
X494129Y257981D01*
X493903Y258546D01*
X493678Y258997D01*
X493508Y259392D01*
X493283Y259731D01*
X493113Y260013D01*
X492944Y260239D01*
X492718Y260521D01*
X492605Y260634D01*
X491759Y261311D01*
X490856Y261763D01*
X489953Y262101D01*
X489162Y262384D01*
X488429Y262497D01*
X487864Y262553D01*
X487639Y262609D01*
X487356D01*
X486679Y262553D01*
X486002Y262497D01*
X485438Y262327D01*
X484986Y262158D01*
X484591Y261989D01*
X484252Y261876D01*
X484083Y261763D01*
X484027Y261706D01*
X483519Y261368D01*
X483067Y260973D01*
X482729Y260578D01*
X482446Y260239D01*
X482277Y259900D01*
X482108Y259618D01*
X481995Y259449D01*
Y259392D01*
X481825Y258772D01*
X481656Y258094D01*
X481543Y257361D01*
X481487Y256627D01*
X481430Y256006D01*
Y255498D01*
Y255103D01*
Y255047D01*
Y254990D01*
Y237833D01*
X476633D01*
Y255216D01*
Y256401D01*
X476689Y257361D01*
X476746Y258151D01*
Y258828D01*
X476802Y259279D01*
X476859Y259618D01*
X476915Y259844D01*
Y259900D01*
X477085Y260634D01*
X477367Y261311D01*
X477593Y261876D01*
X477818Y262440D01*
X478101Y262835D01*
X478270Y263117D01*
X478383Y263343D01*
X478439Y263400D01*
X478891Y263964D01*
X479399Y264415D01*
X479907Y264867D01*
X480471Y265206D01*
X480922Y265488D01*
X481317Y265657D01*
X481543Y265770D01*
X481656Y265826D01*
X482446Y266165D01*
X483293Y266391D01*
X484083Y266560D01*
X484817Y266673D01*
X485438Y266730D01*
X485889Y266786D01*
X486341D01*
X487413Y266730D01*
D02*
G37*
G36*
X561743Y266673D02*
X562420Y266617D01*
X563041Y266504D01*
X563549Y266391D01*
X563944Y266278D01*
X564170Y266222D01*
X564282Y266165D01*
X564960Y265939D01*
X565581Y265714D01*
X566089Y265488D01*
X566540Y265262D01*
X566879Y265093D01*
X567104Y264923D01*
X567274Y264867D01*
X567330Y264811D01*
X567895Y264415D01*
X568346Y263964D01*
X568741Y263456D01*
X569080Y263061D01*
X569362Y262666D01*
X569531Y262384D01*
X569644Y262158D01*
X569701Y262101D01*
X569983Y261481D01*
X570209Y260916D01*
X570322Y260295D01*
X570434Y259788D01*
X570491Y259279D01*
X570547Y258941D01*
Y258715D01*
Y258602D01*
X570491Y257812D01*
X570378Y257135D01*
X570209Y256458D01*
X570039Y255893D01*
X569870Y255442D01*
X569701Y255047D01*
X569588Y254821D01*
X569531Y254764D01*
X569080Y254144D01*
X568572Y253636D01*
X568064Y253184D01*
X567556Y252789D01*
X567104Y252507D01*
X566766Y252281D01*
X566540Y252168D01*
X566427Y252112D01*
X566032Y251943D01*
X565524Y251717D01*
X564395Y251322D01*
X563210Y250983D01*
X561968Y250588D01*
X560896Y250306D01*
X560388Y250137D01*
X559937Y250024D01*
X559598Y249911D01*
X559316Y249854D01*
X559147Y249798D01*
X559090D01*
X558357Y249629D01*
X557736Y249459D01*
X557171Y249290D01*
X556663Y249121D01*
X556212Y249008D01*
X555817Y248838D01*
X555140Y248613D01*
X554688Y248443D01*
X554406Y248274D01*
X554236Y248218D01*
X554180Y248161D01*
X553672Y247822D01*
X553333Y247371D01*
X553051Y246976D01*
X552882Y246581D01*
X552769Y246186D01*
X552713Y245903D01*
Y245678D01*
Y245621D01*
X552769Y244944D01*
X552938Y244380D01*
X553220Y243815D01*
X553503Y243364D01*
X553841Y242969D01*
X554067Y242687D01*
X554293Y242517D01*
X554349Y242461D01*
X555027Y242009D01*
X555760Y241727D01*
X556607Y241501D01*
X557397Y241332D01*
X558131Y241219D01*
X558695Y241163D01*
X559259D01*
X560445Y241219D01*
X561461Y241388D01*
X562307Y241614D01*
X563041Y241896D01*
X563605Y242179D01*
X564057Y242404D01*
X564282Y242574D01*
X564395Y242630D01*
X565016Y243251D01*
X565524Y243985D01*
X565863Y244718D01*
X566145Y245396D01*
X566371Y246016D01*
X566484Y246581D01*
X566596Y246919D01*
Y246976D01*
Y247032D01*
X571337Y246299D01*
X570942Y244718D01*
X570434Y243307D01*
X569813Y242179D01*
X569193Y241219D01*
X568628Y240429D01*
X568120Y239921D01*
X567782Y239582D01*
X567725Y239526D01*
X567669Y239470D01*
X567104Y239074D01*
X566484Y238736D01*
X565129Y238171D01*
X563718Y237776D01*
X562364Y237494D01*
X561743Y237381D01*
X561178Y237325D01*
X560614Y237268D01*
X560163D01*
X559767Y237212D01*
X559259D01*
X558018Y237268D01*
X556945Y237381D01*
X555930Y237551D01*
X555027Y237776D01*
X554293Y238002D01*
X553728Y238171D01*
X553390Y238284D01*
X553333Y238341D01*
X553277D01*
X552318Y238849D01*
X551527Y239357D01*
X550850Y239921D01*
X550229Y240429D01*
X549778Y240881D01*
X549496Y241276D01*
X549270Y241501D01*
X549213Y241614D01*
X548762Y242404D01*
X548423Y243251D01*
X548141Y243985D01*
X547972Y244662D01*
X547859Y245283D01*
X547802Y245734D01*
Y246016D01*
Y246129D01*
X547859Y247032D01*
X547972Y247822D01*
X548198Y248500D01*
X548367Y249121D01*
X548593Y249629D01*
X548818Y249967D01*
X548931Y250193D01*
X548988Y250249D01*
X549439Y250814D01*
X549947Y251322D01*
X550455Y251773D01*
X550963Y252112D01*
X551471Y252394D01*
X551810Y252563D01*
X552035Y252676D01*
X552148Y252733D01*
X552543Y252902D01*
X552995Y253071D01*
X554067Y253466D01*
X555252Y253861D01*
X556437Y254200D01*
X557510Y254539D01*
X558018Y254652D01*
X558413Y254764D01*
X558751Y254877D01*
X559034Y254934D01*
X559203Y254990D01*
X559259D01*
X559880Y255159D01*
X560445Y255329D01*
X560953Y255442D01*
X561404Y255611D01*
X562138Y255780D01*
X562702Y255950D01*
X563097Y256119D01*
X563323Y256175D01*
X563436Y256232D01*
X563492D01*
X563944Y256458D01*
X564339Y256627D01*
X564678Y256853D01*
X564903Y257022D01*
X565129Y257191D01*
X565242Y257361D01*
X565298Y257417D01*
X565355Y257474D01*
X565694Y258038D01*
X565863Y258602D01*
Y258828D01*
X565919Y258997D01*
Y259110D01*
Y259167D01*
X565863Y259675D01*
X565694Y260183D01*
X565468Y260634D01*
X565186Y260973D01*
X564960Y261311D01*
X564734Y261537D01*
X564565Y261650D01*
X564508Y261706D01*
X563887Y262101D01*
X563154Y262384D01*
X562364Y262553D01*
X561630Y262722D01*
X560896Y262779D01*
X560332Y262835D01*
X559767D01*
X558808Y262779D01*
X557905Y262666D01*
X557171Y262440D01*
X556607Y262214D01*
X556099Y261989D01*
X555760Y261763D01*
X555535Y261650D01*
X555478Y261593D01*
X554914Y261086D01*
X554519Y260521D01*
X554180Y259957D01*
X553898Y259449D01*
X553728Y258941D01*
X553616Y258546D01*
X553559Y258320D01*
Y258207D01*
X548875Y258828D01*
X549100Y259788D01*
X549326Y260634D01*
X549608Y261368D01*
X549891Y262045D01*
X550173Y262497D01*
X550399Y262892D01*
X550512Y263117D01*
X550568Y263174D01*
X551076Y263738D01*
X551640Y264246D01*
X552261Y264698D01*
X552882Y265093D01*
X553446Y265375D01*
X553898Y265601D01*
X554180Y265714D01*
X554236Y265770D01*
X554293D01*
X555252Y266109D01*
X556268Y266334D01*
X557228Y266560D01*
X558131Y266673D01*
X558977Y266730D01*
X559598Y266786D01*
X560953D01*
X561743Y266673D01*
D02*
G37*
G36*
X638556Y179509D02*
X634097D01*
Y183065D01*
X633533Y182331D01*
X632969Y181710D01*
X632348Y181146D01*
X631670Y180638D01*
X631050Y180243D01*
X630372Y179904D01*
X629752Y179622D01*
X629131Y179396D01*
X628002Y179114D01*
X627494Y179001D01*
X627099Y178944D01*
X626760D01*
X626478Y178888D01*
X626252D01*
X625349Y178944D01*
X624446Y179057D01*
X623600Y179227D01*
X622810Y179509D01*
X621286Y180130D01*
X620665Y180525D01*
X620044Y180863D01*
X619480Y181259D01*
X619028Y181597D01*
X618633Y181936D01*
X618238Y182218D01*
X617956Y182500D01*
X617786Y182670D01*
X617674Y182782D01*
X617617Y182839D01*
X616996Y183629D01*
X616432Y184476D01*
X615924Y185322D01*
X615529Y186282D01*
X615190Y187185D01*
X614908Y188144D01*
X614457Y189950D01*
X614287Y190797D01*
X614174Y191587D01*
X614118Y192264D01*
X614062Y192885D01*
X614005Y193393D01*
Y193731D01*
Y194014D01*
Y194070D01*
X614062Y195199D01*
X614118Y196271D01*
X614287Y197231D01*
X614457Y198077D01*
X614626Y198811D01*
X614739Y199375D01*
X614795Y199545D01*
X614852Y199714D01*
X614908Y199771D01*
Y199827D01*
X615247Y200786D01*
X615642Y201689D01*
X616037Y202479D01*
X616432Y203157D01*
X616771Y203665D01*
X617053Y204060D01*
X617222Y204342D01*
X617279Y204398D01*
X617843Y205076D01*
X618520Y205697D01*
X619141Y206204D01*
X619762Y206600D01*
X620270Y206938D01*
X620721Y207220D01*
X621003Y207333D01*
X621116Y207390D01*
X621963Y207728D01*
X622866Y208011D01*
X623713Y208180D01*
X624446Y208349D01*
X625067Y208406D01*
X625575Y208462D01*
X626027D01*
X626873Y208406D01*
X627720Y208293D01*
X628510Y208123D01*
X629244Y207841D01*
X630542Y207277D01*
X631670Y206543D01*
X632122Y206204D01*
X632574Y205866D01*
X632912Y205527D01*
X633194Y205245D01*
X633476Y204963D01*
X633646Y204793D01*
X633702Y204681D01*
X633759Y204624D01*
Y218565D01*
X638556D01*
Y179509D01*
D02*
G37*
G36*
X600121D02*
X600347Y179001D01*
X600460Y178606D01*
X600573Y178380D01*
Y178324D01*
X600911Y177364D01*
X601250Y176574D01*
X601476Y175897D01*
X601702Y175445D01*
X601814Y175107D01*
X601927Y174881D01*
X602040Y174768D01*
Y174712D01*
X602492Y174091D01*
X603000Y173639D01*
X603225Y173470D01*
X603395Y173357D01*
X603507Y173244D01*
X603564D01*
X603959Y173075D01*
X604354Y172906D01*
X605201Y172736D01*
X605539D01*
X605821Y172680D01*
X606104D01*
X607007Y172736D01*
X607910Y172906D01*
X608248Y173018D01*
X608531Y173075D01*
X608756Y173131D01*
X608813D01*
X608305Y168673D01*
X607684Y168447D01*
X607120Y168334D01*
X606612Y168221D01*
X606160Y168108D01*
X605765D01*
X605483Y168052D01*
X605257D01*
X604411Y168108D01*
X603677Y168221D01*
X603000Y168391D01*
X602435Y168616D01*
X601927Y168842D01*
X601589Y169011D01*
X601363Y169124D01*
X601306Y169181D01*
X600686Y169632D01*
X600178Y170196D01*
X599670Y170761D01*
X599218Y171325D01*
X598880Y171833D01*
X598597Y172228D01*
X598428Y172511D01*
X598372Y172623D01*
X598202Y173018D01*
X597976Y173414D01*
X597525Y174373D01*
X597074Y175445D01*
X596678Y176518D01*
X596283Y177477D01*
X596114Y177929D01*
X595945Y178324D01*
X595832Y178606D01*
X595719Y178832D01*
X595662Y179001D01*
Y179057D01*
X584883Y207841D01*
X589680D01*
X595775Y191305D01*
X596227Y190119D01*
X596566Y188991D01*
X596961Y187862D01*
X597243Y186902D01*
X597469Y186056D01*
X597581Y185717D01*
X597638Y185435D01*
X597694Y185209D01*
X597751Y185040D01*
X597807Y184927D01*
Y184871D01*
X598146Y186169D01*
X598484Y187354D01*
X598823Y188483D01*
X599162Y189442D01*
X599444Y190232D01*
X599557Y190571D01*
X599670Y190853D01*
X599726Y191135D01*
X599782Y191305D01*
X599839Y191361D01*
Y191418D01*
X605765Y207841D01*
X610844D01*
X600121Y179509D01*
D02*
G37*
G36*
X580255Y152960D02*
Y151210D01*
X580198Y149517D01*
Y147824D01*
Y146300D01*
Y144833D01*
X580142Y143422D01*
Y142180D01*
Y141052D01*
Y140036D01*
Y139189D01*
Y138512D01*
Y138004D01*
Y137722D01*
Y137609D01*
Y135069D01*
X580198Y132699D01*
Y131570D01*
Y130498D01*
X580255Y129482D01*
Y128522D01*
Y127676D01*
X580311Y126885D01*
Y126208D01*
Y125644D01*
X580368Y125192D01*
Y124854D01*
Y124628D01*
Y124571D01*
X580424Y123386D01*
X580593Y122201D01*
X580988Y119774D01*
X581553Y117460D01*
X581891Y116331D01*
X582230Y115259D01*
X582512Y114299D01*
X582851Y113397D01*
X583133Y112606D01*
X583415Y111873D01*
X583585Y111365D01*
X583754Y110913D01*
X583867Y110688D01*
X583923Y110575D01*
X583528Y110123D01*
X582456Y111703D01*
X581553Y113284D01*
X580763Y114977D01*
X580085Y116670D01*
X579465Y118363D01*
X579013Y120000D01*
X578618Y121637D01*
X578279Y123160D01*
X578054Y124628D01*
X577884Y125926D01*
X577715Y127111D01*
X577659Y128183D01*
X577602Y129030D01*
X577546Y129369D01*
Y129651D01*
Y129877D01*
Y130046D01*
Y130102D01*
Y130159D01*
X572635D01*
Y117742D01*
X572692Y117291D01*
X572918Y116896D01*
X573200Y116670D01*
X573482Y116501D01*
X573821Y116444D01*
X574103Y116388D01*
X574385D01*
X575570Y116501D01*
X576135Y116557D01*
X576586Y116614D01*
X576981Y116670D01*
X577263D01*
X577489Y116726D01*
X577546D01*
Y115823D01*
X576868Y115598D01*
X576304Y115372D01*
X575740Y115090D01*
X575345Y114864D01*
X574949Y114582D01*
X574667Y114299D01*
X574159Y113848D01*
X573934Y113397D01*
X573764Y113058D01*
X573708Y112832D01*
Y112719D01*
X573031Y113001D01*
X572466Y113340D01*
X571958Y113679D01*
X571507Y114074D01*
X571168Y114469D01*
X570886Y114808D01*
X570660Y115203D01*
X570434Y115598D01*
X570209Y116275D01*
X570096Y116839D01*
Y117065D01*
Y117234D01*
Y117291D01*
Y117347D01*
Y153186D01*
X568628Y154258D01*
X571394Y156572D01*
X572861Y154879D01*
X577546D01*
X580311Y156572D01*
X580255Y152960D01*
D02*
G37*
G36*
X622302Y159846D02*
Y159338D01*
Y158830D01*
X622245Y158209D01*
Y157024D01*
X622189Y155726D01*
Y154597D01*
Y154089D01*
Y153637D01*
Y153242D01*
Y152960D01*
Y152791D01*
Y152734D01*
X633702D01*
X631783Y150815D01*
X630880Y151041D01*
X629977Y151210D01*
X629131Y151323D01*
X628341Y151436D01*
X627663D01*
X627099Y151493D01*
X622189D01*
Y144833D01*
X638556D01*
X636637Y142914D01*
X635734Y143140D01*
X634888Y143309D01*
X633984Y143422D01*
X633251Y143535D01*
X632574D01*
X632009Y143591D01*
X614682D01*
Y138681D01*
X625801D01*
X628792Y140374D01*
X628736Y136762D01*
X628679Y133150D01*
Y131344D01*
Y129651D01*
Y128014D01*
Y126490D01*
X628736Y125023D01*
Y123725D01*
Y122596D01*
Y121580D01*
X628792Y120790D01*
Y120226D01*
Y120000D01*
Y119831D01*
Y119774D01*
Y119718D01*
X625801Y121016D01*
Y122314D01*
X600403D01*
Y120395D01*
X597412Y121637D01*
X597469Y122314D01*
Y123217D01*
X597525Y124233D01*
Y125361D01*
X597581Y126547D01*
Y127845D01*
Y130385D01*
X597638Y131626D01*
Y132811D01*
Y133884D01*
Y134843D01*
Y135633D01*
Y136254D01*
Y136480D01*
Y136649D01*
Y136706D01*
Y136762D01*
X595719Y137835D01*
X598710Y140600D01*
X600855Y138681D01*
X611917D01*
Y143591D01*
X588043D01*
X592333Y147824D01*
X595324Y144833D01*
X604693D01*
Y151493D01*
X591655D01*
X595493Y155274D01*
X598089Y152734D01*
X604693D01*
Y156177D01*
X602774Y157645D01*
X607684Y160015D01*
X607627Y158886D01*
X607571Y157701D01*
X607515Y156516D01*
X607458Y155331D01*
Y154315D01*
Y153863D01*
Y153468D01*
Y153186D01*
Y152960D01*
Y152791D01*
Y152734D01*
X619423D01*
Y156346D01*
X617674Y157870D01*
X622358Y160241D01*
X622302Y159846D01*
D02*
G37*
G36*
X545883Y157193D02*
X546166Y156008D01*
X546448Y154992D01*
X546674Y154089D01*
X546786Y153694D01*
X546899Y153355D01*
X546956Y153073D01*
X547012Y152904D01*
X547069Y152791D01*
Y152734D01*
X549213D01*
X551979Y154427D01*
Y154145D01*
X551922Y153750D01*
Y153299D01*
Y152791D01*
X551866Y152170D01*
Y151493D01*
Y150759D01*
Y150025D01*
X551810Y148332D01*
Y146526D01*
Y144607D01*
X551753Y142745D01*
Y140826D01*
Y139076D01*
Y137383D01*
Y136649D01*
Y135916D01*
Y135295D01*
Y134674D01*
Y134166D01*
Y133771D01*
Y133376D01*
Y133150D01*
Y132981D01*
Y132924D01*
X553051Y131852D01*
X550455Y129707D01*
X548988Y131231D01*
X538095D01*
Y129933D01*
Y128691D01*
X538151Y127506D01*
X538208Y126377D01*
X538264Y125361D01*
X538321Y124402D01*
X538377Y123499D01*
X538434Y122653D01*
X538490Y121919D01*
X538546Y121298D01*
X538603Y120734D01*
X538659Y120226D01*
X538716Y119887D01*
Y119605D01*
X538772Y119436D01*
Y119379D01*
X538885Y118532D01*
X539054Y117799D01*
X539167Y117178D01*
X539337Y116614D01*
X539506Y116106D01*
X539675Y115710D01*
X539845Y115372D01*
X540014Y115146D01*
X540296Y114751D01*
X540578Y114525D01*
X540748Y114412D01*
X541425D01*
X542328Y114469D01*
X543287Y114582D01*
X544303Y114751D01*
X545263Y114920D01*
X545714Y115033D01*
X546109Y115090D01*
X546391Y115146D01*
X546617Y115203D01*
X546786Y115259D01*
X546843D01*
X547069Y114412D01*
X546109Y114074D01*
X545319Y113735D01*
X544642Y113397D01*
X544021Y113058D01*
X543513Y112719D01*
X543118Y112381D01*
X542779Y112042D01*
X542497Y111760D01*
X542328Y111478D01*
X542159Y111195D01*
X541989Y110744D01*
X541933Y110462D01*
Y110349D01*
X541086Y110631D01*
X540409Y110913D01*
X539788Y111252D01*
X539280Y111534D01*
X538829Y111816D01*
X538546Y112042D01*
X538377Y112155D01*
X538321Y112211D01*
X537869Y112719D01*
X537474Y113284D01*
X537136Y113961D01*
X536853Y114638D01*
X536684Y115203D01*
X536515Y115710D01*
X536402Y116049D01*
Y116106D01*
Y116162D01*
X536289Y116783D01*
X536176Y117629D01*
X536063Y118589D01*
X535950Y119661D01*
X535894Y120846D01*
X535781Y122032D01*
X535612Y124571D01*
X535555Y125757D01*
X535499Y126942D01*
X535442Y127958D01*
X535386Y128917D01*
Y129651D01*
X535329Y130272D01*
Y130498D01*
Y130667D01*
Y130723D01*
Y130780D01*
X533862Y131626D01*
X536628Y134392D01*
X538546Y132473D01*
X549213D01*
Y151493D01*
X539619D01*
X539675Y149687D01*
X539788Y148050D01*
X539845Y146639D01*
X539901Y145341D01*
X540014Y144269D01*
X540070Y143309D01*
X540127Y142519D01*
X540183Y141842D01*
X540240Y141334D01*
X540296Y140882D01*
X540353Y140544D01*
X540409Y140261D01*
Y140092D01*
X540465Y139979D01*
Y139923D01*
X540635Y139528D01*
X540860Y139189D01*
X541086Y138963D01*
X541312Y138794D01*
X541481Y138681D01*
X541651Y138625D01*
X541763Y138568D01*
X542271D01*
X542892Y138625D01*
X543626Y138681D01*
X544360Y138794D01*
X545093Y138907D01*
X545658Y138963D01*
X545883Y139020D01*
X546053Y139076D01*
X546222D01*
X546448Y138455D01*
X545714Y138173D01*
X545037Y137891D01*
X544473Y137609D01*
X544021Y137327D01*
X543626Y137044D01*
X543287Y136819D01*
X543005Y136536D01*
X542779Y136311D01*
X542554Y135859D01*
X542441Y135520D01*
X542384Y135295D01*
Y135238D01*
X541425Y135520D01*
X540635Y135803D01*
X539957Y136141D01*
X539450Y136480D01*
X539054Y136706D01*
X538772Y136931D01*
X538603Y137101D01*
X538546Y137157D01*
X538208Y137722D01*
X537869Y138455D01*
X537643Y139302D01*
X537474Y140092D01*
X537361Y140882D01*
X537305Y141503D01*
X537248Y141729D01*
Y141898D01*
Y142011D01*
Y142067D01*
Y143535D01*
X537192Y145002D01*
Y146526D01*
X537136Y147937D01*
Y148558D01*
X537079Y149179D01*
Y149687D01*
Y150138D01*
X537023Y150533D01*
Y150815D01*
Y150985D01*
Y151041D01*
X535555Y152339D01*
X538546Y154653D01*
X540014Y152734D01*
X546222D01*
X545714Y153468D01*
X545206Y154145D01*
X544755Y154766D01*
X544303Y155274D01*
X543908Y155726D01*
X543513Y156121D01*
X543174Y156459D01*
X542836Y156742D01*
X542271Y157080D01*
X541876Y157362D01*
X541651Y157475D01*
X541538D01*
X545376Y159620D01*
X545883Y157193D01*
D02*
G37*
G36*
X505586Y157645D02*
X505530Y155895D01*
X505473Y154258D01*
X505417Y152678D01*
Y152001D01*
Y151323D01*
Y150759D01*
Y150308D01*
Y149912D01*
Y149574D01*
Y149404D01*
Y149348D01*
X526977D01*
X525058Y147429D01*
X524155Y147655D01*
X523251Y147824D01*
X522405Y147937D01*
X521615Y148050D01*
X520938D01*
X520373Y148106D01*
X507787D01*
X509198Y145792D01*
X510779Y143535D01*
X512472Y141447D01*
X514165Y139528D01*
X515971Y137665D01*
X517777Y135972D01*
X519527Y134448D01*
X521220Y133037D01*
X522856Y131796D01*
X524380Y130723D01*
X525735Y129820D01*
X526920Y129030D01*
X527484Y128691D01*
X527936Y128409D01*
X528331Y128183D01*
X528670Y127958D01*
X528952Y127845D01*
X529121Y127732D01*
X529234Y127619D01*
X529291D01*
X528895Y126998D01*
X526073Y128240D01*
X523477Y129651D01*
X521050Y131118D01*
X518736Y132642D01*
X516648Y134222D01*
X514729Y135803D01*
X512980Y137383D01*
X511399Y138850D01*
X509988Y140318D01*
X508803Y141672D01*
X507787Y142858D01*
X506941Y143874D01*
X506264Y144776D01*
X505981Y145115D01*
X505812Y145397D01*
X505643Y145623D01*
X505530Y145792D01*
X505417Y145905D01*
Y143930D01*
Y142011D01*
Y140148D01*
X505473Y138399D01*
Y136762D01*
Y135182D01*
X505530Y133715D01*
Y132416D01*
Y131175D01*
X505586Y130102D01*
Y129199D01*
Y128409D01*
X505643Y127845D01*
Y127393D01*
Y127111D01*
Y126998D01*
X502030Y128691D01*
Y129087D01*
X502087Y129482D01*
Y129990D01*
Y130554D01*
X502143Y131852D01*
Y133263D01*
X502200Y134787D01*
Y136424D01*
Y139753D01*
X502256Y141390D01*
Y142914D01*
Y144325D01*
Y145567D01*
Y146131D01*
Y146639D01*
Y147034D01*
Y147429D01*
Y147711D01*
Y147937D01*
Y148050D01*
Y148106D01*
X501579D01*
X500450Y145623D01*
X499209Y143365D01*
X497854Y141277D01*
X496387Y139415D01*
X494919Y137722D01*
X493395Y136254D01*
X491928Y134956D01*
X490461Y133827D01*
X489050Y132868D01*
X487752Y132021D01*
X486566Y131344D01*
X485494Y130836D01*
X484647Y130441D01*
X484309Y130272D01*
X484027Y130159D01*
X483801Y130046D01*
X483575Y129990D01*
X483519Y129933D01*
X483462D01*
X483293Y130385D01*
X483124Y130780D01*
X482559Y131457D01*
X481825Y131965D01*
X481092Y132303D01*
X480415Y132529D01*
X479794Y132699D01*
X479568D01*
X479399Y132755D01*
X479229D01*
Y133602D01*
X480527Y133771D01*
X481769Y134053D01*
X484196Y134730D01*
X486397Y135577D01*
X488485Y136593D01*
X490404Y137722D01*
X492154Y138963D01*
X493734Y140205D01*
X495145Y141503D01*
X496443Y142745D01*
X497515Y143986D01*
X498419Y145059D01*
X499209Y146075D01*
X499773Y146921D01*
X500055Y147260D01*
X500224Y147542D01*
X500394Y147768D01*
X500450Y147937D01*
X500563Y148050D01*
Y148106D01*
X481374D01*
X485381Y152114D01*
X488147Y149348D01*
X502256D01*
Y155556D01*
X500337Y157024D01*
X505643Y159394D01*
X505586Y157645D01*
D02*
G37*
G36*
X547295Y148671D02*
X546730Y147711D01*
X546222Y146752D01*
X545883Y145905D01*
X545601Y145059D01*
X545376Y144381D01*
X545263Y143817D01*
X545150Y143478D01*
Y143422D01*
Y143365D01*
X545037Y142745D01*
X544868Y142293D01*
X544698Y141955D01*
X544529Y141729D01*
X544360Y141616D01*
X544190Y141559D01*
X544134Y141503D01*
X544077D01*
X543965Y141559D01*
X543795Y141672D01*
X543400Y141955D01*
X543062Y142293D01*
X542949Y142350D01*
X542892Y142406D01*
X542610Y142801D01*
X542384Y143196D01*
X542271Y143591D01*
X542215Y143986D01*
Y144325D01*
Y144607D01*
X542271Y144776D01*
Y144833D01*
X542384Y145115D01*
X542554Y145454D01*
X542836Y145792D01*
X543118Y146131D01*
X543852Y146865D01*
X544698Y147542D01*
X545488Y148163D01*
X546166Y148671D01*
X546448Y148840D01*
X546674Y149009D01*
X546786Y149066D01*
X546843Y149122D01*
X547295Y148671D01*
D02*
G37*
G36*
X544303Y123951D02*
X555196D01*
X553277Y122032D01*
X552430Y122257D01*
X551640Y122427D01*
X550963Y122540D01*
X550342Y122653D01*
X549891D01*
X549496Y122709D01*
X539167D01*
X542159Y126095D01*
X544303Y123951D01*
D02*
G37*
G36*
X501579Y123160D02*
X500620Y121298D01*
X499942Y119661D01*
X499378Y118194D01*
X499152Y117573D01*
X498983Y116952D01*
X498814Y116444D01*
X498701Y115993D01*
X498588Y115598D01*
X498531Y115259D01*
X498475Y114977D01*
X498419Y114808D01*
Y114695D01*
Y114638D01*
X498306Y113961D01*
X498193Y113453D01*
X498023Y113058D01*
X497910Y112832D01*
X497798Y112663D01*
X497685Y112606D01*
X497572Y112550D01*
X497346Y112606D01*
X497120Y112719D01*
X496612Y113171D01*
X496387Y113340D01*
X496161Y113566D01*
X496048Y113679D01*
X495992Y113735D01*
X495597Y114187D01*
X495314Y114582D01*
X495089Y114977D01*
X494976Y115372D01*
X494863Y115654D01*
X494806Y115880D01*
Y116049D01*
Y116106D01*
X494863Y116501D01*
X494919Y116896D01*
X495145Y117629D01*
X495314Y117912D01*
X495427Y118137D01*
X495484Y118250D01*
X495540Y118307D01*
X495709Y118589D01*
X495992Y118871D01*
X496330Y119210D01*
X496669Y119605D01*
X497572Y120508D01*
X498531Y121354D01*
X499434Y122201D01*
X499829Y122596D01*
X500224Y122878D01*
X500507Y123160D01*
X500732Y123386D01*
X500902Y123499D01*
X500958Y123555D01*
X501579Y123160D01*
D02*
G37*
G36*
X512923Y122935D02*
X512133Y121242D01*
X511456Y119661D01*
X510948Y118250D01*
X510553Y117009D01*
X510383Y116501D01*
X510271Y116049D01*
X510158Y115598D01*
X510045Y115259D01*
X509988Y114977D01*
Y114808D01*
X509932Y114695D01*
Y114638D01*
X509819Y113848D01*
X509650Y113284D01*
X509481Y112889D01*
X509311Y112606D01*
X509142Y112437D01*
X508973Y112381D01*
X508916Y112324D01*
X508860D01*
X508690Y112381D01*
X508465Y112493D01*
X507957Y112945D01*
X507731Y113114D01*
X507561Y113340D01*
X507449Y113453D01*
X507392Y113509D01*
X507054Y113904D01*
X506771Y114299D01*
X506602Y114695D01*
X506433Y115033D01*
X506376Y115259D01*
X506320Y115485D01*
Y115598D01*
Y115654D01*
X506376Y115936D01*
X506433Y116275D01*
X506715Y117009D01*
X506884Y117291D01*
X507054Y117573D01*
X507110Y117742D01*
X507166Y117799D01*
X507336Y118137D01*
X507618Y118476D01*
X507957Y118871D01*
X508295Y119323D01*
X509142Y120226D01*
X510045Y121129D01*
X510835Y121975D01*
X511569Y122709D01*
X511851Y122935D01*
X512077Y123160D01*
X512189Y123273D01*
X512246Y123330D01*
X512923Y122935D01*
D02*
G37*
G36*
X520260Y123273D02*
X520655Y122201D01*
X521050Y121242D01*
X521446Y120338D01*
X521841Y119548D01*
X522179Y118815D01*
X522574Y118194D01*
X522913Y117629D01*
X523195Y117178D01*
X523534Y116726D01*
X523759Y116388D01*
X523985Y116106D01*
X524155Y115936D01*
X524324Y115767D01*
X524380Y115710D01*
X524437Y115654D01*
X525001Y115146D01*
X525396Y114695D01*
X525735Y114299D01*
X525904Y114017D01*
X526017Y113735D01*
X526073Y113566D01*
X526130Y113453D01*
Y113397D01*
X526073Y113227D01*
X525961Y113058D01*
X525565Y112832D01*
X525227Y112606D01*
X525114Y112550D01*
X525058D01*
X524663Y112381D01*
X524380Y112268D01*
X524098Y112211D01*
X523929Y112155D01*
X523647Y112098D01*
X523590D01*
X523026Y112155D01*
X522518Y112381D01*
X522010Y112719D01*
X521558Y113058D01*
X521220Y113397D01*
X520938Y113735D01*
X520768Y113961D01*
X520712Y114017D01*
X520486Y114469D01*
X520260Y114977D01*
X520034Y115654D01*
X519865Y116444D01*
X519696Y117234D01*
X519583Y118137D01*
X519357Y119887D01*
X519301Y120790D01*
X519244Y121637D01*
X519188Y122370D01*
X519132Y123048D01*
Y123612D01*
X519075Y124007D01*
Y124289D01*
Y124402D01*
X519922D01*
X520260Y123273D01*
D02*
G37*
G36*
X491364Y124176D02*
X490630Y123104D01*
X489896Y122088D01*
X489275Y121129D01*
X488767Y120226D01*
X488260Y119379D01*
X487808Y118589D01*
X487469Y117855D01*
X487131Y117178D01*
X486848Y116557D01*
X486623Y116049D01*
X486453Y115541D01*
X486284Y115203D01*
X486171Y114864D01*
X486115Y114638D01*
X486058Y114525D01*
Y114469D01*
X485946Y113961D01*
X485776Y113566D01*
X485663Y113171D01*
X485550Y112832D01*
X485268Y112324D01*
X485042Y111986D01*
X484817Y111816D01*
X484647Y111703D01*
X484591Y111647D01*
X484534D01*
X484422Y111703D01*
X484252Y111873D01*
X484027Y112098D01*
X483801Y112381D01*
X483632Y112606D01*
X483462Y112832D01*
X483349Y113001D01*
X483293Y113058D01*
X482954Y113566D01*
X482672Y114074D01*
X482503Y114525D01*
X482333Y114864D01*
X482277Y115203D01*
X482220Y115428D01*
Y115598D01*
Y115654D01*
X482277Y116106D01*
X482390Y116501D01*
X482785Y117404D01*
X483011Y117742D01*
X483236Y118025D01*
X483349Y118250D01*
X483406Y118307D01*
X483688Y118645D01*
X484027Y119040D01*
X484478Y119492D01*
X485042Y120000D01*
X486228Y121016D01*
X487469Y122088D01*
X488711Y123048D01*
X489275Y123499D01*
X489727Y123894D01*
X490178Y124176D01*
X490461Y124402D01*
X490686Y124571D01*
X490743Y124628D01*
X491364Y124176D01*
D02*
G37*
G36*
X558357Y154879D02*
X563718D01*
X566484Y156572D01*
X566427Y154427D01*
Y152396D01*
X566371Y150420D01*
Y148558D01*
X566314Y146865D01*
Y145228D01*
Y143761D01*
X566258Y142406D01*
Y141164D01*
Y140092D01*
Y139189D01*
Y138399D01*
Y137778D01*
Y137327D01*
Y137101D01*
Y136988D01*
Y135520D01*
Y134110D01*
X566314Y132811D01*
Y131513D01*
Y130272D01*
X566371Y129143D01*
Y128127D01*
X566427Y127168D01*
X566484Y126265D01*
Y125474D01*
X566540Y124797D01*
Y124233D01*
Y123838D01*
X566596Y123499D01*
Y123273D01*
Y123217D01*
X566709Y122088D01*
X566879Y121016D01*
X567104Y119887D01*
X567443Y118815D01*
X568177Y116726D01*
X568572Y115710D01*
X568967Y114808D01*
X569418Y113961D01*
X569813Y113171D01*
X570152Y112493D01*
X570491Y111929D01*
X570773Y111421D01*
X570999Y111082D01*
X571112Y110857D01*
X571168Y110800D01*
X570717Y110349D01*
X569926Y111195D01*
X569249Y112042D01*
X568628Y112889D01*
X568064Y113679D01*
X567556Y114469D01*
X567104Y115203D01*
X566314Y116557D01*
X566032Y117178D01*
X565806Y117742D01*
X565581Y118194D01*
X565411Y118589D01*
X565298Y118927D01*
X565186Y119153D01*
X565129Y119323D01*
Y119379D01*
X564678Y121129D01*
X564339Y122991D01*
X564057Y124797D01*
X563887Y126490D01*
X563831Y127281D01*
X563775Y127958D01*
Y128579D01*
X563718Y129143D01*
Y129538D01*
Y129877D01*
Y130102D01*
Y130159D01*
X558131D01*
Y115823D01*
X558187Y115428D01*
X558357Y115146D01*
X558639Y114920D01*
X558864Y114808D01*
X559147Y114695D01*
X559429Y114638D01*
X560275D01*
X560896Y114695D01*
X561573Y114751D01*
X562251Y114864D01*
X562815Y114920D01*
X563267Y114977D01*
X563605Y115033D01*
X563718D01*
Y114187D01*
X562984Y113904D01*
X562307Y113622D01*
X561743Y113340D01*
X561235Y113058D01*
X560840Y112776D01*
X560501Y112493D01*
X560163Y112211D01*
X559937Y111929D01*
X559655Y111478D01*
X559485Y111139D01*
X559429Y110913D01*
Y110800D01*
X558695Y111082D01*
X558074Y111421D01*
X557566Y111816D01*
X557115Y112211D01*
X556720Y112606D01*
X556437Y113058D01*
X556155Y113453D01*
X555986Y113904D01*
X555704Y114638D01*
X555591Y115315D01*
Y115541D01*
Y115710D01*
Y115823D01*
Y115880D01*
Y153186D01*
X554124Y154653D01*
X557115Y156798D01*
X558357Y154879D01*
D02*
G37*
G36*
X609151Y120169D02*
X607515Y119379D01*
X606047Y118589D01*
X604693Y117855D01*
X603395Y117121D01*
X602266Y116388D01*
X601250Y115710D01*
X600347Y115090D01*
X599500Y114525D01*
X598823Y114017D01*
X598202Y113509D01*
X597694Y113114D01*
X597299Y112776D01*
X596961Y112493D01*
X596735Y112268D01*
X596622Y112155D01*
X596566Y112098D01*
X595945Y111478D01*
X595437Y110970D01*
X594929Y110631D01*
X594534Y110405D01*
X594252Y110292D01*
X593969Y110236D01*
X593857Y110180D01*
X593800D01*
X593631Y110236D01*
X593518Y110292D01*
X593292Y110575D01*
X593123Y110970D01*
X592953Y111421D01*
X592897Y111873D01*
X592841Y112268D01*
X592784Y112550D01*
Y112663D01*
Y113114D01*
X592897Y113566D01*
X593123Y113961D01*
X593405Y114356D01*
X593744Y114751D01*
X594139Y115146D01*
X595042Y115767D01*
X595945Y116331D01*
X596678Y116726D01*
X597017Y116896D01*
X597243Y116952D01*
X597412Y117065D01*
X597469D01*
X599331Y117799D01*
X601306Y118532D01*
X603225Y119210D01*
X604128Y119492D01*
X605031Y119831D01*
X605821Y120056D01*
X606555Y120282D01*
X607233Y120508D01*
X607797Y120677D01*
X608305Y120846D01*
X608643Y120959D01*
X608869Y121016D01*
X608926D01*
X609151Y120169D01*
D02*
G37*
G36*
X621511Y120846D02*
X622866Y119661D01*
X624221Y118476D01*
X625575Y117404D01*
X626930Y116388D01*
X628284Y115485D01*
X629582Y114582D01*
X630824Y113792D01*
X632009Y113114D01*
X633081Y112437D01*
X634041Y111929D01*
X634888Y111478D01*
X635565Y111082D01*
X636016Y110857D01*
X636355Y110688D01*
X636468Y110631D01*
X636242Y109728D01*
X634944Y110123D01*
X633533Y110631D01*
X632122Y111252D01*
X630655Y111873D01*
X627776Y113284D01*
X626365Y114017D01*
X625067Y114695D01*
X623769Y115428D01*
X622640Y116049D01*
X621624Y116670D01*
X620721Y117178D01*
X619988Y117629D01*
X619423Y117968D01*
X619085Y118194D01*
X619028Y118250D01*
X618972D01*
X616601Y118645D01*
X620270Y122088D01*
X621511Y120846D01*
D02*
G37*
%LPC*%
G36*
X519527Y262835D02*
X518624D01*
X518059Y262722D01*
X516987Y262440D01*
X516027Y261989D01*
X515237Y261537D01*
X514560Y261029D01*
X514052Y260578D01*
X513770Y260295D01*
X513657Y260239D01*
Y260183D01*
X513262Y259675D01*
X512867Y259110D01*
X512302Y257812D01*
X511907Y256514D01*
X511625Y255216D01*
X511456Y254087D01*
X511399Y253579D01*
Y253128D01*
X511343Y252789D01*
Y252507D01*
Y252338D01*
Y252281D01*
Y251322D01*
X511456Y250362D01*
X511569Y249516D01*
X511682Y248782D01*
X511851Y248048D01*
X512077Y247371D01*
X512246Y246807D01*
X512472Y246299D01*
X512697Y245791D01*
X512867Y245396D01*
X513092Y245057D01*
X513262Y244831D01*
X513375Y244606D01*
X513488Y244436D01*
X513601Y244380D01*
Y244323D01*
X514052Y243872D01*
X514504Y243477D01*
X515406Y242856D01*
X516366Y242404D01*
X517213Y242122D01*
X518003Y241896D01*
X518624Y241840D01*
X518849Y241784D01*
X519188D01*
X519809Y241840D01*
X520373Y241896D01*
X521446Y242179D01*
X522405Y242574D01*
X523195Y243082D01*
X523872Y243533D01*
X524324Y243928D01*
X524606Y244210D01*
X524719Y244323D01*
X525114Y244831D01*
X525453Y245396D01*
X526017Y246694D01*
X526356Y247992D01*
X526638Y249346D01*
X526807Y250532D01*
X526864Y251096D01*
Y251547D01*
X526920Y251943D01*
Y252225D01*
Y252394D01*
Y252450D01*
Y253410D01*
X526807Y254256D01*
X526694Y255047D01*
X526581Y255837D01*
X526412Y256514D01*
X526243Y257135D01*
X526017Y257756D01*
X525791Y258264D01*
X525622Y258715D01*
X525396Y259110D01*
X525227Y259449D01*
X525058Y259675D01*
X524945Y259900D01*
X524832Y260070D01*
X524719Y260126D01*
Y260183D01*
X524267Y260634D01*
X523816Y261086D01*
X522913Y261706D01*
X522010Y262214D01*
X521107Y262497D01*
X520373Y262722D01*
X519752Y262779D01*
X519527Y262835D01*
D02*
G37*
G36*
X588495D02*
X588156D01*
X587479Y262779D01*
X586858Y262722D01*
X585673Y262384D01*
X584657Y261932D01*
X583810Y261424D01*
X583133Y260916D01*
X582625Y260465D01*
X582343Y260126D01*
X582230Y260070D01*
Y260013D01*
X581722Y259279D01*
X581271Y258433D01*
X580988Y257586D01*
X580706Y256683D01*
X580537Y255950D01*
X580424Y255272D01*
Y255047D01*
X580368Y254877D01*
Y254764D01*
Y254708D01*
X596227D01*
X596058Y256006D01*
X595719Y257191D01*
X595324Y258207D01*
X594872Y258997D01*
X594477Y259675D01*
X594082Y260183D01*
X593857Y260465D01*
X593744Y260578D01*
X592841Y261311D01*
X591938Y261876D01*
X590978Y262271D01*
X590075Y262553D01*
X589341Y262722D01*
X588721Y262779D01*
X588495Y262835D01*
D02*
G37*
G36*
X633364Y272260D02*
X624333D01*
X623600Y272204D01*
X622866D01*
X622189Y272148D01*
X621060Y271978D01*
X620157Y271865D01*
X619423Y271696D01*
X618915Y271527D01*
X618633Y271470D01*
X618520Y271414D01*
X617504Y270906D01*
X616545Y270285D01*
X615698Y269551D01*
X614965Y268818D01*
X614400Y268140D01*
X613949Y267576D01*
X613836Y267350D01*
X613723Y267181D01*
X613610Y267068D01*
Y267012D01*
X613271Y266391D01*
X612933Y265657D01*
X612425Y264190D01*
X612086Y262609D01*
X611804Y261086D01*
X611748Y260408D01*
X611691Y259731D01*
X611635Y259167D01*
Y258659D01*
X611578Y258207D01*
Y257925D01*
Y257699D01*
Y257643D01*
X611635Y256063D01*
X611748Y254595D01*
X611917Y253297D01*
X612086Y252168D01*
X612199Y251717D01*
X612312Y251322D01*
X612425Y250927D01*
X612481Y250644D01*
X612538Y250419D01*
X612594Y250249D01*
X612651Y250137D01*
Y250080D01*
X613046Y249008D01*
X613497Y248048D01*
X614005Y247202D01*
X614457Y246468D01*
X614852Y245903D01*
X615190Y245508D01*
X615416Y245283D01*
X615472Y245170D01*
X616037Y244718D01*
X616601Y244323D01*
X617166Y243985D01*
X617730Y243646D01*
X618238Y243420D01*
X618633Y243251D01*
X618915Y243195D01*
X619028Y243138D01*
X619875Y242912D01*
X620891Y242743D01*
X621907Y242630D01*
X622866Y242574D01*
X623713Y242517D01*
X624108Y242461D01*
X633364D01*
Y272260D01*
D02*
G37*
G36*
X626760Y204511D02*
X625914D01*
X625349Y204398D01*
X624277Y204116D01*
X623374Y203665D01*
X622584Y203213D01*
X621963Y202705D01*
X621511Y202254D01*
X621229Y201972D01*
X621116Y201915D01*
Y201859D01*
X620721Y201351D01*
X620383Y200730D01*
X619818Y199488D01*
X619423Y198077D01*
X619198Y196779D01*
X619028Y195594D01*
X618972Y195030D01*
Y194578D01*
X618915Y194183D01*
Y193901D01*
Y193731D01*
Y193675D01*
Y192716D01*
X619028Y191756D01*
X619141Y190910D01*
X619254Y190119D01*
X619423Y189386D01*
X619649Y188708D01*
X619875Y188144D01*
X620044Y187580D01*
X620270Y187128D01*
X620496Y186677D01*
X620665Y186338D01*
X620891Y186056D01*
X621003Y185830D01*
X621116Y185661D01*
X621229Y185604D01*
Y185548D01*
X621681Y185096D01*
X622132Y184645D01*
X623035Y183968D01*
X623938Y183516D01*
X624785Y183178D01*
X625519Y183008D01*
X626139Y182895D01*
X626365Y182839D01*
X626647D01*
X627381Y182895D01*
X628002Y183008D01*
X628679Y183178D01*
X629244Y183403D01*
X630316Y184024D01*
X631162Y184701D01*
X631896Y185322D01*
X632404Y185943D01*
X632574Y186169D01*
X632686Y186338D01*
X632799Y186451D01*
Y186507D01*
X633025Y186959D01*
X633251Y187467D01*
X633589Y188596D01*
X633815Y189837D01*
X633984Y191022D01*
X634097Y192095D01*
Y192603D01*
X634154Y192998D01*
Y193336D01*
Y193619D01*
Y193788D01*
Y193844D01*
Y194804D01*
X634041Y195650D01*
X633928Y196497D01*
X633815Y197287D01*
X633646Y197964D01*
X633420Y198642D01*
X633251Y199206D01*
X633025Y199771D01*
X632799Y200222D01*
X632630Y200617D01*
X632404Y200956D01*
X632235Y201238D01*
X632122Y201464D01*
X632009Y201633D01*
X631896Y201689D01*
Y201746D01*
X631445Y202254D01*
X630993Y202649D01*
X630542Y203044D01*
X630090Y203326D01*
X629187Y203834D01*
X628341Y204173D01*
X627607Y204342D01*
X626986Y204455D01*
X626760Y204511D01*
D02*
G37*
G36*
X577546Y153637D02*
X572635D01*
Y142745D01*
X577546D01*
Y153637D01*
D02*
G37*
G36*
Y141503D02*
X572635D01*
Y131400D01*
X577546D01*
Y141503D01*
D02*
G37*
G36*
X619423Y151493D02*
X607458D01*
Y144833D01*
X619423D01*
Y151493D01*
D02*
G37*
G36*
X625801Y137439D02*
X614682D01*
Y131005D01*
X625801D01*
Y137439D01*
D02*
G37*
G36*
X611917D02*
X600403D01*
Y131005D01*
X611917D01*
Y137439D01*
D02*
G37*
G36*
X625801Y129764D02*
X614682D01*
Y123555D01*
X625801D01*
Y129764D01*
D02*
G37*
G36*
X611917D02*
X600403D01*
Y123555D01*
X611917D01*
Y129764D01*
D02*
G37*
G36*
X563718Y153637D02*
X558131D01*
Y142745D01*
X563718D01*
Y153637D01*
D02*
G37*
G36*
Y141503D02*
X558131D01*
Y131400D01*
X563718D01*
Y141503D01*
D02*
G37*
%LPD*%
D11*
X255950Y500703D02*
G03*
X255950Y500703I-46000J0D01*
G01*
X236620Y516890D02*
Y529590D01*
X230270Y523240D02*
X242970D01*
D16*
X709803Y402844D02*
X744093D01*
Y389636D02*
Y402844D01*
X709803Y389636D02*
X744093D01*
X709803D02*
Y402844D01*
Y422656D02*
X744093D01*
Y409448D02*
Y422656D01*
X709803Y409448D02*
X744093D01*
X709803D02*
Y422656D01*
X448056Y52832D02*
Y87122D01*
X434848Y52832D02*
X448056D01*
X434848D02*
Y87122D01*
X448056D01*
X426720Y53340D02*
Y87630D01*
X413512Y53340D02*
X426720D01*
X413512D02*
Y87630D01*
X426720D01*
X271631Y78128D02*
X280820D01*
X271631Y65128D02*
X280820D01*
X254820Y78128D02*
X264011D01*
X254820Y65128D02*
X264011D01*
X254820D02*
Y78128D01*
X280820Y65128D02*
Y78128D01*
D19*
X267821Y71627D02*
X268583D01*
X267059D02*
X267821D01*
Y69341D02*
Y73913D01*
D21*
X420452Y90679D02*
Y97027D01*
X417278D01*
X416220Y95969D01*
Y93853D01*
X417278Y92795D01*
X420452D01*
X418336D02*
X416220Y90679D01*
X409872D02*
X414104D01*
X409872Y94911D01*
Y95969D01*
X410930Y97027D01*
X413046D01*
X414104Y95969D01*
X407756Y91737D02*
X406698Y90679D01*
X404582D01*
X403524Y91737D01*
Y95969D01*
X404582Y97027D01*
X406698D01*
X407756Y95969D01*
Y94911D01*
X406698Y93853D01*
X403524D01*
X456012Y93092D02*
Y99440D01*
X452838D01*
X451780Y98382D01*
Y96266D01*
X452838Y95208D01*
X456012D01*
X453896D02*
X451780Y93092D01*
X445432D02*
X449664D01*
X445432Y97324D01*
Y98382D01*
X446490Y99440D01*
X448606D01*
X449664Y98382D01*
X439084Y99440D02*
X441200Y98382D01*
X443316Y96266D01*
Y94150D01*
X442258Y93092D01*
X440142D01*
X439084Y94150D01*
Y95208D01*
X440142Y96266D01*
X443316D01*
X691052Y398906D02*
Y392558D01*
X694226D01*
X695284Y393616D01*
Y395732D01*
X694226Y396790D01*
X691052D01*
X693168D02*
X695284Y398906D01*
X701632D02*
X697400D01*
X701632Y394674D01*
Y393616D01*
X700574Y392558D01*
X698458D01*
X697400Y393616D01*
X707980Y398906D02*
X703748D01*
X707980Y394674D01*
Y393616D01*
X706922Y392558D01*
X704806D01*
X703748Y393616D01*
X690057Y418210D02*
Y411862D01*
X693231D01*
X694289Y412920D01*
Y415036D01*
X693231Y416094D01*
X690057D01*
X692173D02*
X694289Y418210D01*
X696405D02*
X698521D01*
X697463D01*
Y411862D01*
X696405Y412920D01*
X701695D02*
X702753Y411862D01*
X704869D01*
X705927Y412920D01*
Y413978D01*
X704869Y415036D01*
X705927Y416094D01*
Y417152D01*
X704869Y418210D01*
X702753D01*
X701695Y417152D01*
Y416094D01*
X702753Y415036D01*
X701695Y413978D01*
Y412920D01*
X702753Y415036D02*
X704869D01*
X240347Y71035D02*
X239289Y69977D01*
X237173D01*
X236115Y71035D01*
Y75267D01*
X237173Y76325D01*
X239289D01*
X240347Y75267D01*
X246695Y76325D02*
X242463D01*
X246695Y72093D01*
Y71035D01*
X245637Y69977D01*
X243521D01*
X242463Y71035D01*
M02*
