G04*
G04 #@! TF.GenerationSoftware,Altium Limited,Altium Designer,23.3.1 (30)*
G04*
G04 Layer_Color=255*
%FSLAX44Y44*%
%MOMM*%
G71*
G04*
G04 #@! TF.SameCoordinates,E1D300C1-D630-478A-AE1F-60CBEBB5A271*
G04*
G04*
G04 #@! TF.FilePolarity,Positive*
G04*
G01*
G75*
%ADD27R,1.0160X0.8000*%
%ADD32R,0.7620X0.7620*%
%ADD35R,0.8000X1.0160*%
%ADD111C,1.6000*%
%ADD112R,1.6000X1.6000*%
%ADD113C,1.7000*%
%ADD114R,1.7000X1.7000*%
%ADD115C,1.9000*%
%ADD116R,1.9000X1.9000*%
%ADD117O,4.9996X3.0000*%
%ADD118R,1.7000X1.7000*%
%ADD119C,1.5000*%
%ADD120C,5.8000*%
%ADD121C,1.8000*%
%ADD122R,1.8000X1.8000*%
%ADD123C,5.0000*%
%ADD124R,1.9000X1.9000*%
%ADD125C,2.5000*%
D27*
X736219Y396240D02*
D03*
X717677D02*
D03*
X736219Y416052D02*
D03*
X717677D02*
D03*
D32*
X261320Y71628D02*
D03*
X274320D02*
D03*
D35*
X441452Y60706D02*
D03*
Y79248D02*
D03*
X420116Y61214D02*
D03*
Y79756D02*
D03*
D111*
X543052Y342392D02*
D03*
X693020Y42672D02*
D03*
X668020Y17672D02*
D03*
Y67672D02*
D03*
D112*
X568052Y342392D02*
D03*
D113*
X82804Y412496D02*
D03*
Y488696D02*
D03*
Y463296D02*
D03*
Y437896D02*
D03*
Y387096D02*
D03*
X351028Y773684D02*
D03*
X376428D02*
D03*
X401828D02*
D03*
X142748Y727456D02*
D03*
X218948D02*
D03*
X193548D02*
D03*
X168148D02*
D03*
X117348D02*
D03*
X777240Y94996D02*
D03*
X751840D02*
D03*
X84328Y597916D02*
D03*
Y674116D02*
D03*
Y648716D02*
D03*
Y623316D02*
D03*
Y572516D02*
D03*
X419100Y38100D02*
D03*
X444500D02*
D03*
X469900D02*
D03*
X777240Y120396D02*
D03*
X751840D02*
D03*
X777240Y145796D02*
D03*
X751840D02*
D03*
X777240Y197104D02*
D03*
X751840D02*
D03*
X777240Y171704D02*
D03*
X751840D02*
D03*
X777240Y222504D02*
D03*
X751840D02*
D03*
X80772Y201168D02*
D03*
Y251968D02*
D03*
Y277368D02*
D03*
Y302768D02*
D03*
Y226568D02*
D03*
X769620Y358140D02*
D03*
Y383540D02*
D03*
Y408940D02*
D03*
X262128Y28448D02*
D03*
X287528D02*
D03*
X312928D02*
D03*
D114*
X82804Y514096D02*
D03*
X325628Y773684D02*
D03*
X84328Y699516D02*
D03*
X393700Y38100D02*
D03*
X80772Y328168D02*
D03*
X338328Y28448D02*
D03*
D115*
X376428Y279400D02*
D03*
X648208Y527812D02*
D03*
D116*
X325628Y279400D02*
D03*
D117*
X670814Y684022D02*
D03*
X670814Y731022D02*
D03*
Y778022D02*
D03*
X498094Y683006D02*
D03*
X498094Y730006D02*
D03*
Y777006D02*
D03*
D118*
X244348Y727456D02*
D03*
X726440Y94996D02*
D03*
Y120396D02*
D03*
Y145796D02*
D03*
Y197104D02*
D03*
Y171704D02*
D03*
Y222504D02*
D03*
X769620Y434340D02*
D03*
D119*
X516636Y591944D02*
D03*
Y543944D02*
D03*
D120*
X755396Y613156D02*
D03*
Y541156D02*
D03*
D121*
X186220Y500380D02*
D03*
D122*
X236220D02*
D03*
D123*
X759084Y40000D02*
D03*
X40000D02*
D03*
X39116Y762508D02*
D03*
X758952Y761492D02*
D03*
D124*
X648208Y578612D02*
D03*
D125*
X552220Y779780D02*
D03*
X617220D02*
D03*
M02*
