M48
;Layer_Color=9474304
;FILE_FORMAT=4:4
METRIC,LZ
;TYPE=PLATED
T1F00S00C0.3048
T2F00S00C0.4572
T3F00S00C0.5080
T4F00S00C0.6096
T5F00S00C0.8000
T6F00S00C0.9000
T7F00S00C1.0000
T8F00S00C1.2000
T10F00S00C3.3000
T11F00S00C4.4000
%
T01
X00359156Y00184876
X00401828Y00201676
X00385572Y0023876
X00378968Y00243332
X00373253Y0025146
X00376936Y0032258
X00374396Y00333248
X00409702Y00355092
X00490503Y00367284
X00497332
X00504444
X00514604Y0028194
X005842Y0023368
X00613664Y00248412
X00634492Y0028194
X0067818Y00228092
X00686816Y0022098
X0068326Y00163576
X0065278Y00170688
X00659384Y00140208
X00669544Y00098552
X00304292Y00103124
X00297688Y00094996
X00309499Y00173088
X0027432Y0019558
X00277622Y00205232
X00275336Y00216408
X00269518Y00270256
X00300228
X00240792Y00265176
X00210312Y00275844
Y00285496
Y00295148
X00197612Y0029464
X0019812Y00285496
Y00275844
X0015494Y00278384
X00155956Y00257048
X00131572Y00225044
X00145288Y00183388
X00132842Y00162306
X0019812Y00133096
X00171196Y000889
X00175768Y00046228
X0016256Y0003048
X00142647Y00031035
X00110744Y00032512
X0011684Y00072136
X00037592Y00116332
X0018505Y00317397
X00171484Y00331724
X00242316Y00355092
X00249428Y003048
X00326644Y00330708
X00303784Y00390144
X00298196Y00438404
X00291107Y00446441
X00255016Y00453644
X00227584Y00470916
X00189484Y00449072
X00199136Y0041402
X00209804
X00212344Y00401828
X00213868Y00392176
X00201676Y00392684
X00200152Y0040132
X00146304Y00410204
X00132334Y00384302
X00140208Y0047175
X00148336Y00550164
X00138715Y00579151
X00188468Y0058166
Y00591312
X00200152Y0059182
X0020066Y0058166
Y00572008
X00188468
X00226568Y00551688
X00258723Y00548821
X0028448Y00547116
X00281432Y00586232
X00326644Y00572516
X0033274Y00522732
X00336804Y00512572
X00316992Y00481076
X00341529Y00453644
X00335788Y00443992
X00280416Y00508054
X00244856Y00533908
X00248412Y00618744
X00247396Y00636016
X00225044Y00644652
X00224536Y00654304
X002159
X00206248
X0020574Y00644144
X00215392
X00172212Y00636524
X00146812Y00646176
Y00669036
X00153423Y00697172
X00245872Y0069342
X00298552Y00670408
X00292411Y00753447
X00342392Y00613156
X00395262Y00610904
X00423164Y00621455
X00384048Y00656844
X00385064Y00665988
X0037338Y00669036
X00370332Y00704088
X00358648Y0069342
X00440944Y00695452
X0044958Y00733552
X00453644Y00742188
X00463169Y00720344
X00413512Y00730504
X00468884Y00658368
X00519684Y00635508
X0057658Y00636905
X00570992Y00653288
X005715Y00608076
X00587433Y00623872
X0061214Y00741172
X00727964Y00704596
X00673663Y00548848
X00687324Y00496316
X00694436Y00487172
X00724916Y00488188
X004826Y00509016
X00471424Y00504444
X00468376Y00543583
X00448564Y00531368
X00438188Y00549182
X00392684Y00572008
X00347472Y00545084
X00354584Y00430276
X00382524Y00427228
X00394716
X00395986Y00408813
X00408432Y00390144
X00401612Y00460282
X00437368Y004521
X00437388Y00443484
X0049022Y00408432
X00497332
X00504444
Y00398145
X00497332
X0049022
Y00387858
X00497332
X00504444
Y00377571
X00497332
X0049022
X00533184Y00385098
X00543052Y00385064
X0055118
Y00395732
X00543052
X00533908Y00395224
X00786892Y00686308
T02
X00609092Y00021844
X00465328Y00300459
X0039878Y00366268
X00237744Y00207264
X00329184Y00103111
T03
X00563988Y00097028
X00611124Y00331216
T04
X00753872Y00286512
X00686816Y00270256
T05
X0066802Y00017672
X0069302Y00042672
X0066802Y00067672
X00568052Y00342392
X00543052
X00516636Y00543944
Y00591944
T06
X0075184Y00094996
X0077724
Y00120396
X0075184
Y00145796
X0077724
Y00171704
Y00197104
X0075184
Y00171704
Y00222504
X0077724
X0076962Y0035814
X0072644Y00222504
Y00197104
Y00171704
Y00145796
Y00120396
Y00094996
X004699Y000381
X004445
X004191
X003937
X00338328Y00028448
X00312928
X00287528
X00262128
X00080772Y00201168
Y00226568
Y00251968
Y00277368
Y00302768
Y00328168
X00082804Y00387096
Y00412496
Y00437896
Y00463296
Y00488696
Y00514096
X00084328Y00572516
Y00597916
Y00623316
Y00648716
Y00674116
Y00699516
X00117348Y00727456
X00142748
X00168148
X00193548
X00218948
X00244348
X00325628Y00773684
X0023622Y0050038
X0018622
X00351028Y00773684
X00376428
X00401828
X0076962Y0043434
Y0040894
Y0038354
T07
X00376428Y002794
X00325628
X00648208Y00527812
Y00578612
T08
X0055222Y0077978
X0061722
T10
X00759084Y0004
X0004
X00039116Y00762508
X00758952Y00761492
T11
X00755396Y00541156
Y00613156
M30
